<svg width="64" height="64" viewBox="0 0 64 64" fill="none" xmlns="http://www.w3.org/2000/svg">
<g clip-path="url(#clip0_3200_4231)">
<path d="M58.8597 64H5.14032C2.30141 64 0 61.6986 0 58.8597V5.14032C0 2.30141 2.30141 0 5.14032 0H58.8597C61.6986 0 64 2.30141 64 5.14032V58.8597C64 61.6986 61.6986 64 58.8597 64Z" fill="white"/>
<path d="M57.3206 26.4394V48.6236L52.6313 51.1857L51.7656 51.6601L41.6358 57.2017L40.9811 57.5581L33.9939 61.3769V39.1927L57.3206 26.4394Z" fill="url(#paint0_linear_3200_4231)"/>
<path d="M52.8757 29.1135V42.6167L52.8709 42.6214L41.6796 48.7399L41.6108 48.7793V35.6182L52.8709 29.1183L52.8757 29.1135Z" fill="#FFC800"/>
<path d="M34.0289 61.3756L10.6992 47.9062V25.7215L34.0289 39.1909V61.3756Z" fill="#FFC800"/>
<path d="M60.0363 25.1256C59.8884 18.0912 55.6203 10.0532 50.3728 7.02313L43.5503 3.08453C41.5645 1.93815 39.7189 1.67048 38.1834 2.15264C38.1522 2.16215 38.122 2.17556 38.0934 2.19199L11.9018 17.0664C11.6692 17.1987 11.6212 17.5135 11.8041 17.709L32.7633 40.0943C33.1343 40.4904 33.7302 40.5769 34.1981 40.3018C34.1981 40.3018 60.0389 25.2579 60.0368 25.1364L60.0363 25.1256Z" fill="#FF6633"/>
<path d="M40.3633 36.7092C40.1946 36.8043 40.0346 36.8995 39.8703 36.9946C36.5665 38.9232 34.1968 40.3027 34.1968 40.3027C33.7297 40.5751 33.133 40.4887 32.7654 40.0951L11.8054 17.7081C11.6195 17.5135 11.667 17.1978 11.9005 17.0681L18.0757 13.5611L19.0227 13.0249C20.1427 13.1243 21.3492 13.5265 22.6119 14.253L29.9892 18.5124C35.3297 21.5914 39.7233 29.4616 40.3633 36.7092Z" fill="#FF9933"/>
<path d="M43.1005 35.1092C42.1492 35.667 41.2281 36.2032 40.3633 36.7092C40.1946 36.8043 40.0346 36.8995 39.8703 36.9946C39.4638 29.8422 35.1308 21.8854 29.8335 18.8281L22.7287 14.7286C21.0508 13.76 19.4681 13.3924 18.0757 13.5611L19.0227 13.0249L21.3881 11.68C22.7589 11.533 24.3157 11.9005 25.9589 12.8519L33.0638 16.9557C38.3524 20.0086 42.6897 27.9567 43.1005 35.1092Z" fill="url(#paint1_linear_3200_4231)"/>
<path d="M46.3264 33.2281C45.2324 33.8681 44.147 34.4995 43.1005 35.1092C42.6897 27.9568 38.3524 20.0086 33.0637 16.9557L25.9589 12.8519C24.3156 11.9005 22.7589 11.533 21.3881 11.68L24.7091 9.79459C24.7654 9.79026 24.8216 9.78594 24.8778 9.78161C24.9729 9.77729 25.0767 9.77297 25.1762 9.77297C25.8681 9.76864 26.6075 9.89405 27.3729 10.1492C27.5416 10.2054 27.7059 10.2659 27.8789 10.3395C28.307 10.5081 28.7394 10.7243 29.1848 10.9795L36.2897 15.0789C36.4627 15.1784 36.6313 15.2822 36.8 15.3903C36.9686 15.4984 37.1373 15.6108 37.3016 15.7319C37.4702 15.8486 37.6346 15.9697 37.7989 16.0995C37.9805 16.2422 38.1664 16.3935 38.3481 16.5492C38.4864 16.6659 38.6248 16.7913 38.7632 16.9167C38.8973 17.0378 39.027 17.1632 39.1567 17.2886C39.2648 17.3881 39.3686 17.4919 39.4681 17.6C39.5805 17.7124 39.6929 17.8292 39.801 17.9459C39.9178 18.0713 40.0345 18.1967 40.147 18.3265C40.281 18.4778 40.4108 18.6292 40.5448 18.7892C40.6616 18.9319 40.7783 19.0789 40.8994 19.2259C40.9945 19.3427 41.0854 19.4638 41.1762 19.5849C41.2843 19.7276 41.3924 19.8746 41.4962 20.0216C41.6129 20.1773 41.7254 20.3373 41.8335 20.5016C41.9675 20.6919 42.0973 20.8908 42.227 21.0897C42.3524 21.2886 42.4778 21.4876 42.6032 21.6951C42.7243 21.8984 42.8454 22.1016 42.9664 22.3135C43.0832 22.5211 43.2 22.733 43.3124 22.9449C43.4248 23.1568 43.5373 23.373 43.6454 23.5892C43.7535 23.8054 43.8573 24.0216 43.961 24.2422C44.0605 24.4627 44.1643 24.6832 44.2594 24.9081C44.3545 25.1286 44.4497 25.3535 44.5405 25.5827C44.6313 25.8076 44.7178 26.0324 44.8043 26.2616C44.8908 26.4908 44.9729 26.72 45.0508 26.9492C45.1286 27.1784 45.2021 27.4119 45.2756 27.6411C45.3362 27.8313 45.3924 28.0216 45.4443 28.2162C45.5264 28.493 45.6 28.7697 45.6691 29.0508C45.7254 29.267 45.7773 29.4876 45.8248 29.7081C45.881 29.9546 45.9329 30.2011 45.9762 30.4476C46.1102 31.1308 46.2054 31.8184 46.2702 32.4973C46.2918 32.7395 46.3091 32.9859 46.3264 33.2281Z" fill="#FF9933"/>
<path d="M49.5525 31.3384C48.4887 31.9654 47.4033 32.5968 46.3265 33.2281C46.3092 32.9859 46.2919 32.7395 46.2703 32.4973C46.2357 32.1557 46.1968 31.8184 46.1492 31.4724C46.1017 31.1308 46.0454 30.7892 45.9763 30.4476C45.933 30.2011 45.8811 29.9546 45.8249 29.7081C45.7773 29.4876 45.7254 29.267 45.6692 29.0508C45.6 28.7697 45.5265 28.493 45.4444 28.2162C45.3925 28.0216 45.3363 27.8314 45.2757 27.6411C45.2022 27.4119 45.1287 27.1784 45.0509 26.9492C44.973 26.72 44.8909 26.4908 44.8044 26.2616C44.7179 26.0324 44.6314 25.8076 44.5406 25.5827C44.4498 25.3535 44.3546 25.1286 44.2595 24.9081C44.1644 24.6832 44.0606 24.4627 43.9611 24.2422C43.8573 24.0216 43.7536 23.8054 43.6454 23.5892C43.5373 23.373 43.4249 23.1568 43.3125 22.9449C43.2 22.733 43.0833 22.5211 42.9665 22.3135C42.8454 22.1016 42.7244 21.8984 42.6033 21.6951C42.4779 21.4876 42.3525 21.2886 42.2271 21.0897C42.0973 20.8908 41.9676 20.6919 41.8336 20.5016C41.7254 20.3373 41.613 20.1773 41.4963 20.0216C41.3925 19.8746 41.2844 19.7276 41.1763 19.5849C41.0854 19.4638 40.9903 19.3427 40.8995 19.2259C40.7784 19.0789 40.6617 18.9319 40.5449 18.7892C40.4109 18.6292 40.2811 18.4778 40.1471 18.3265C40.0346 18.1968 39.9179 18.0714 39.8011 17.9459C39.693 17.8292 39.5806 17.7124 39.4681 17.6C39.3687 17.4919 39.2649 17.3881 39.1568 17.2886C39.0271 17.1632 38.8973 17.0378 38.7633 16.9168C38.6249 16.7914 38.4865 16.6659 38.3481 16.5492C38.1665 16.3935 37.9806 16.2422 37.799 16.0995C37.6346 15.9697 37.4703 15.8486 37.3017 15.7319C37.1373 15.6108 36.9687 15.4984 36.8 15.3903C36.6314 15.2822 36.4627 15.1784 36.2898 15.0789L29.1849 10.9795C28.7395 10.7243 28.3071 10.5081 27.879 10.3395C27.706 10.2659 27.5417 10.2054 27.373 10.1492C26.6076 9.89405 25.8681 9.76865 25.1763 9.77297C25.0768 9.77297 24.973 9.7773 24.8779 9.78162C24.8217 9.78595 24.7654 9.79027 24.7092 9.79459L28.0217 7.91351C28.3633 7.88757 28.7136 7.89622 29.0768 7.93513C29.1157 7.93513 29.1503 7.93946 29.1892 7.94811C29.2973 7.96108 29.4098 7.97838 29.5222 8C29.8206 8.04757 30.119 8.12108 30.426 8.22054C30.4822 8.23784 30.5427 8.25513 30.599 8.27676C31.1871 8.47135 31.7968 8.74811 32.4152 9.10703L39.5157 13.2065C39.6887 13.3059 39.8573 13.4097 40.026 13.5178C40.1946 13.6259 40.3633 13.7384 40.5276 13.8595C40.6963 13.9762 40.8606 14.0973 41.0249 14.227C41.2065 14.3697 41.3925 14.5211 41.5741 14.6768C41.7125 14.7935 41.8509 14.9189 41.9892 15.0443C42.1449 15.1827 42.2963 15.3297 42.4476 15.4768C42.6465 15.6714 42.8411 15.8703 43.0314 16.0778C43.1438 16.1989 43.2563 16.32 43.3644 16.4454C43.546 16.6486 43.7233 16.8605 43.8963 17.0724C43.9957 17.1892 44.0909 17.3103 44.186 17.4314C44.3633 17.6562 44.5363 17.8897 44.7049 18.1232C44.826 18.2876 44.9427 18.4562 45.0595 18.6249C45.2152 18.8454 45.3622 19.0703 45.5049 19.2995C45.6173 19.4724 45.7211 19.6454 45.8292 19.8184C45.9503 20.0216 46.0714 20.2292 46.1925 20.4368C46.3092 20.64 46.4217 20.8389 46.5254 21.0465C46.5384 21.0595 46.5427 21.0768 46.5514 21.0897C46.6465 21.2714 46.7417 21.4573 46.8368 21.6432C46.8584 21.6822 46.8757 21.7211 46.893 21.76C46.9838 21.9373 47.0703 22.1189 47.1525 22.2962C47.1741 22.3351 47.1914 22.3741 47.2087 22.413C47.3038 22.6205 47.399 22.8238 47.4854 23.0314C47.559 23.1957 47.6281 23.36 47.693 23.5243C47.7492 23.6541 47.8011 23.7838 47.853 23.9178C47.9395 24.1384 48.026 24.3589 48.1038 24.5795C48.1773 24.7827 48.2509 24.9859 48.32 25.1892C48.4281 25.5135 48.5319 25.8422 48.6271 26.1708C48.6703 26.3092 48.7092 26.4476 48.7481 26.5859C48.9946 27.4768 49.1892 28.3762 49.3276 29.2714C49.3665 29.5049 49.4011 29.7384 49.4271 29.9719C49.44 30.0714 49.453 30.1708 49.4617 30.2703C49.5006 30.6292 49.5308 30.9838 49.5525 31.3384Z" fill="url(#paint2_linear_3200_4231)"/>
<path d="M52.7784 29.4487C51.7492 30.0541 50.6638 30.6897 49.5524 31.3384C49.5351 30.9838 49.5048 30.6292 49.4616 30.2703C49.453 30.1708 49.44 30.0714 49.427 29.9719C49.4011 29.7384 49.3665 29.5049 49.3276 29.2714C49.1892 28.3762 48.9946 27.4768 48.7481 26.586C48.7092 26.4476 48.6703 26.3092 48.627 26.1708C48.5319 25.8422 48.4281 25.5135 48.32 25.1892C48.2508 24.986 48.1773 24.7827 48.1038 24.5795C48.0259 24.3589 47.9394 24.1384 47.853 23.9178C47.8011 23.7838 47.7492 23.6541 47.693 23.5243C47.6281 23.36 47.5589 23.1957 47.4854 23.0314C47.3989 22.8238 47.3038 22.6205 47.2086 22.413C47.1913 22.3741 47.174 22.3351 47.1524 22.2962C47.0703 22.1189 46.9838 21.9373 46.893 21.76C46.8757 21.7211 46.8584 21.6822 46.8367 21.6432C46.7416 21.4573 46.6465 21.2714 46.5513 21.0897C46.5427 21.0768 46.5384 21.0595 46.5254 21.0465C46.4216 20.8389 46.3092 20.64 46.1924 20.4368C46.0713 20.2292 45.9503 20.0216 45.8292 19.8184C45.7211 19.6454 45.6173 19.4724 45.5048 19.2995C45.3621 19.0703 45.2151 18.8454 45.0594 18.6249C44.9427 18.4562 44.8259 18.2876 44.7048 18.1232C44.5362 17.8897 44.3632 17.6562 44.1859 17.4314C44.0908 17.3103 43.9957 17.1892 43.8962 17.0724C43.7232 16.8605 43.5459 16.6487 43.3643 16.4454C43.2562 16.32 43.1438 16.1989 43.0313 16.0778C42.8411 15.8703 42.6465 15.6714 42.4476 15.4768C42.2962 15.3297 42.1448 15.1827 41.9892 15.0443C41.8508 14.9189 41.7124 14.7935 41.574 14.6768C41.3924 14.5211 41.2065 14.3697 41.0248 14.227C40.8605 14.0973 40.6962 13.9762 40.5276 13.8595C40.3632 13.7384 40.1946 13.626 40.0259 13.5178C39.8573 13.4097 39.6886 13.306 39.5157 13.2065L32.4151 9.10703C31.7967 8.74811 31.187 8.47136 30.5989 8.27676C30.5427 8.25514 30.4821 8.23784 30.4259 8.22055C30.1189 8.12109 29.8205 8.04757 29.5221 8.00001C29.4097 7.97838 29.2973 7.96109 29.1892 7.94811C29.1503 7.93946 29.1157 7.93514 29.0767 7.93514C28.7178 7.8919 28.3632 7.88757 28.0216 7.91352L31.3211 6.03676C32.627 5.95892 34.093 6.33514 35.6411 7.23027L42.7459 11.3341C48.0303 14.3827 52.3546 22.3049 52.7784 29.4487Z" fill="#FF9933"/>
<path d="M56.0086 27.5503C55.0443 28.1211 53.9502 28.7654 52.7783 29.4487C52.3546 22.3049 48.0302 14.3827 42.7459 11.3341L35.641 7.23029C34.0929 6.33515 32.627 5.95893 31.321 6.03677L34.6119 4.15569C34.6162 4.15137 34.6205 4.15569 34.6205 4.15569C34.6248 4.15137 34.6292 4.15137 34.6335 4.15569C35.9221 4.09947 37.3578 4.48434 38.8713 5.35785L45.9719 9.45731C51.2519 12.506 55.5762 20.4108 56.0086 27.5503Z" fill="url(#paint3_linear_3200_4231)"/>
<path d="M59.2303 25.6389C58.5298 26.067 57.4054 26.733 56.0087 27.5503C55.5763 20.4108 51.2519 12.506 45.9719 9.45731L38.8714 5.35785C37.3579 4.48434 35.9222 4.09947 34.6335 4.15569L37.9373 2.28326C37.9373 2.28326 37.9373 2.28326 37.9417 2.28326H37.946C37.946 2.27461 37.9546 2.27893 37.9546 2.27893C39.2173 2.24434 40.6184 2.6292 42.0973 3.48109L49.2022 7.58488C54.4692 10.6249 58.7892 18.5124 59.2303 25.6389Z" fill="#FF9933"/>
<path d="M32.2927 39.2843L32.2797 40.1263L33.398 40.7719C33.7526 40.9764 34.0402 40.7593 34.0402 40.2863C34.0402 33.165 29.7107 24.8921 24.3697 21.8084L17.5472 17.8694C12.2062 14.7857 7.87671 18.0588 7.87671 25.1801C7.87671 25.6527 8.16428 26.2024 8.51887 26.4069L9.72752 27.1049L10.4938 26.5846L32.2927 39.2843Z" fill="url(#paint4_linear_3200_4231)"/>
<path d="M17.4418 19.5481C17.3934 19.5351 17.1343 19.4733 16.7387 19.4249C16.7343 19.4249 16.7343 19.4249 16.7343 19.4249C15.7544 19.3064 13.9395 19.2973 12.4805 20.5059C10.3624 22.2508 10.6496 26.7291 10.6496 26.7291L9.86298 27.1818V27.1862H9.85865L8.96222 26.6677C8.66773 25.6787 8.32482 24.1583 8.64136 22.7213C9.22125 20.0757 12.3988 18.8056 13.7216 18.5418C14.9916 18.2876 17.3012 19.4426 17.4418 19.5481Z" fill="#333333"/>
<path d="M34.0376 40.2871C34.0376 40.6387 33.8794 40.8497 33.6554 40.8497C33.5762 40.8497 33.4884 40.8234 33.3959 40.7706L31.8534 39.8811C31.5239 39.6913 31.3535 39.3315 31.357 38.9509C31.357 38.9479 31.357 38.9453 31.357 38.9423C31.357 33.005 27.7488 26.1055 23.293 23.5347L17.6017 20.2474C17.1533 19.9879 16.714 19.786 16.2876 19.632C16.2833 19.632 16.2833 19.632 16.2833 19.632C15.6242 19.3946 14.9955 19.2804 14.4022 19.2804C11.5412 19.2804 9.53732 21.9217 9.53732 26.3425C9.53732 26.637 9.67353 26.9622 9.8625 27.1818V27.1862H9.85818L8.96175 26.6677L8.51807 26.4082C8.16218 26.2015 7.87634 25.6523 7.87634 25.1823C7.87634 19.8781 10.2759 16.7092 13.7081 16.7092C14.8813 16.7092 16.1821 17.0828 17.5447 17.8694L24.3693 21.8071C29.709 24.8926 34.0376 33.1633 34.0376 40.2871Z" fill="#FF6633"/>
<path d="M53.9814 38.3118V51.7851L42.79 57.9036L42.7217 57.8646L41.7444 57.2636V43.8828L52.838 37.6471L53.9814 38.3118Z" fill="#352A2B"/>
<path d="M42.938 44.9068L53.7704 38.6538V51.6541L42.938 57.5766V44.9068Z" fill="url(#paint5_linear_3200_4231)"/>
<path d="M53.5542 39.0279V51.5256L43.1542 57.2117V45.0314L53.5542 39.0279ZM53.9866 38.2772L53.9818 38.2819L42.7222 44.7818V57.9429L42.7905 57.904L53.9818 51.7855L53.9866 51.7808V38.2772Z" fill="#352A2B"/>
<path d="M17.6151 24.3235V33.0988L24.9115 37.088L24.957 37.0651L25.5939 36.6707V27.949L19.1701 24.3464L18.3662 23.891L17.6151 24.3235Z" fill="#352A2B"/>
<path d="M19.1702 24.3464V32.6435L25.5939 36.1552V27.949L19.1702 24.3464Z" fill="url(#paint6_linear_3200_4231)"/>
<path d="M43.2671 57.5239L42.8909 57.3111L53.4297 38.7105L53.6139 38.8147L53.834 38.8121V38.8739L53.8059 38.9232L43.2671 57.5239Z" fill="#352A2B"/>
<path d="M43.1325 45.1509L42.9137 45.5244L53.6017 51.7843L53.8205 51.4108L43.1325 45.1509Z" fill="#352A2B"/>
<path d="M13.3492 38.3914C13.3795 39.84 12.5492 41.5222 10.1535 42.1751C9.78165 42.2789 1.93732 44.4887 3.0876 40.5708C3.14814 40.3589 3.23895 40.1211 3.36003 39.8703C5.66922 35.0011 10.4087 35.386 12.0735 36.026C12.7957 36.3027 13.3233 37.28 13.3492 38.3914Z" fill="url(#paint7_linear_3200_4231)"/>
<path d="M13.3493 38.3914C13.0595 39.5676 12.1471 40.7222 10.2574 41.2411C9.92008 41.3319 3.43359 43.1611 3.08765 40.5708C3.14819 40.3589 3.239 40.1211 3.36008 39.8703C5.66927 35.0011 10.4087 35.386 12.0736 36.026C12.7958 36.3027 13.3233 37.28 13.3493 38.3914Z" fill="url(#paint8_linear_3200_4231)"/>
<path d="M11.3544 36.0666C11.2645 35.8876 8.93713 33.085 13.4011 28.4541C15.1936 26.5946 11.7423 33.6774 16.0589 35.0288C16.4035 35.1364 12.7213 38.0311 11.3544 36.0666Z" fill="#333300"/>
<path d="M29.5641 47.7133C28.6482 54.6374 27.1637 58.5747 22.0151 58.9133C21.5637 58.9393 21.1641 58.9786 20.7952 59.0219C18.2599 59.3345 17.5611 60.515 15.3038 61.123C14.6352 61.3012 13.8236 61.427 12.7862 61.466C12.1176 61.4919 11.3535 61.4789 10.4722 61.4184C2.9708 60.9107 2.30659 55.328 4.76799 53.2791C5.27134 52.8623 5.64064 52.4545 5.92259 52.0247C5.97923 51.9464 6.0268 51.8685 6.07437 51.786C6.79048 50.5444 6.84713 49.0945 7.12475 46.7243C7.1334 46.6158 7.14637 46.5073 7.15934 46.3944C7.23761 45.7215 7.33751 44.9747 7.47199 44.1414C8.33167 38.8714 10.9838 36.5315 13.5148 35.3985C14.9604 34.7516 16.6361 34.3131 18.0774 34.717C19.0456 34.9946 19.5836 35.4811 20.2002 35.9455C20.934 36.4969 21.776 37.0136 23.5948 37.1044C25.5356 37.2039 30.515 40.4986 29.5641 47.7133Z" fill="#B08D8E"/>
<path d="M29.5641 47.7133C28.6482 54.6374 27.1637 58.5747 22.0151 58.9133C21.5637 58.9393 21.1641 58.9786 20.7952 59.0219C18.2599 59.3345 17.5611 60.515 15.3038 61.123C14.6352 61.3012 13.8236 61.427 12.7862 61.466C12.1176 61.4919 11.3535 61.4789 10.4722 61.4184C2.9708 60.9107 2.30659 55.328 4.76799 53.2791C5.27134 52.8623 5.64064 52.4545 5.92259 52.0247C5.97923 51.9464 6.0268 51.8685 6.07437 51.786C6.79048 50.5444 6.84713 49.0945 7.12475 46.7243C7.1334 46.6158 7.14637 46.5073 7.15934 46.3944C7.23761 45.7215 7.33751 44.9747 7.47199 44.1414C8.33167 38.8714 10.9838 36.5315 13.5148 35.3985C14.9604 34.7516 16.6361 34.3131 18.0774 34.717C19.0456 34.9946 19.5836 35.4811 20.2002 35.9455C20.934 36.4969 21.776 37.0136 23.5948 37.1044C25.5356 37.2039 30.515 40.4986 29.5641 47.7133Z" fill="url(#paint9_radial_3200_4231)"/>
<path d="M15.1684 60.2941C14.2733 61.0041 13.181 61.7003 10.928 61.6221C3.41363 61.3661 2.55827 55.8093 4.95049 53.6779C5.52779 53.1654 5.92303 52.6707 6.20498 52.141C7.99784 50.8298 13.8837 51.3341 16.0026 55.9049C16.6322 57.2627 16.4835 59.251 15.1684 60.2941Z" fill="url(#paint10_radial_3200_4231)"/>
<path d="M29.5642 47.7133C28.6483 54.6374 23.482 54.2223 23.1131 54.266C20.5778 54.5786 19.597 56.9241 17.4682 57.8897C14.7451 59.1252 11.4457 57.6506 10.9523 56.9488C10.0818 55.7107 13.1278 54.285 13.0431 52.7325C12.7049 46.5444 15.6857 40.6123 19.639 39.7496C22.5138 39.1226 21.7765 37.0123 23.5953 37.1036C25.5356 37.2039 30.5151 40.4986 29.5642 47.7133Z" fill="url(#paint11_linear_3200_4231)"/>
<path d="M19.4755 53.8335C19.6373 55.5442 18.2915 56.9816 16.7015 57.2973C15.1119 57.613 13.8803 56.6876 13.7186 54.9769C13.5568 53.2662 14.7145 51.6234 16.3045 51.3077C17.8946 50.9924 19.3142 52.1228 19.4755 53.8335Z" fill="url(#paint12_radial_3200_4231)"/>
<path d="M9.23942 49.936C9.09628 51.4642 7.82839 52.4714 6.41347 52.1933C6.37456 52.1847 6.1445 52.1021 5.9231 52.0242C5.97974 51.946 6.02731 51.8681 6.07488 51.7855C6.79099 50.544 6.84764 49.0941 7.12526 46.7239C8.44504 47.0884 9.37823 48.4817 9.23942 49.936Z" fill="url(#paint13_radial_3200_4231)"/>
<path d="M10.9902 47.0448C10.9902 47.0966 10.9902 47.1446 10.9816 47.1965C10.9383 48.4424 10.2348 49.4582 9.36256 49.5624C9.30591 49.571 9.2497 49.5753 9.19305 49.5753C8.20753 49.5667 7.15283 48.733 7.15283 47.331C7.15283 46.4934 7.52602 45.651 8.04278 45.104C8.3857 44.7395 8.79391 44.5094 9.19305 44.5094C9.82267 44.5094 10.3827 44.9738 10.6992 45.677C10.8817 46.0726 10.9902 46.5414 10.9902 47.0448Z" fill="white"/>
<path d="M17.2708 50.5323C17.2708 50.5842 17.2708 50.6322 17.2665 50.6841C17.2189 51.8953 16.5634 52.8852 15.721 53.037C15.6427 53.0586 15.5562 53.0629 15.4736 53.0629C15.1696 53.0586 14.857 52.9803 14.575 52.8242C13.9411 52.4856 13.4377 51.7911 13.4377 50.8186C13.4377 49.9373 13.8503 49.0473 14.406 48.5133C14.6274 48.2919 14.8704 48.1358 15.1221 48.0575C15.2393 48.0186 15.3564 47.9965 15.4736 47.9965C16.1033 47.9965 16.6676 48.461 16.9798 49.1641C17.1666 49.5602 17.2708 50.029 17.2708 50.5323Z" fill="white"/>
<path d="M10.9902 47.0448C10.9902 47.0966 10.9902 47.1446 10.9816 47.1965C10.9383 48.4424 10.2348 49.4582 9.36256 49.5624C9.30591 49.571 9.2497 49.5753 9.19305 49.5753C8.20753 49.5667 7.15283 48.733 7.15283 47.331C7.15283 46.4934 7.52602 45.651 8.04278 45.104C8.3857 44.7395 9.40321 45.8681 9.80278 45.8681C10.4324 45.8681 10.3827 44.9738 10.6996 45.677C10.8817 46.0726 10.9902 46.5414 10.9902 47.0448Z" fill="#D6D6D6"/>
<path d="M17.2708 50.5323C17.2708 50.5842 17.2708 50.6322 17.2665 50.6841C17.2189 51.8954 16.5634 52.8852 15.721 53.037C15.6427 53.0586 15.5562 53.0629 15.4736 53.0629C15.1696 53.0586 14.857 52.9803 14.575 52.8242C13.9411 52.4856 13.4377 51.7911 13.4377 50.8186C13.4377 49.9373 13.8503 49.0474 14.406 48.5133C14.6274 48.2919 15.4801 49.4945 15.7318 49.4162C15.849 49.3773 15.9662 49.3553 16.0834 49.3553C16.713 49.3553 16.6676 48.461 16.9802 49.1641C17.1666 49.5602 17.2708 50.029 17.2708 50.5323Z" fill="#D6D6D6"/>
<path d="M10.7066 60.6409C9.68215 60.8969 8.60972 61.101 7.58096 61.0227C6.30486 60.9228 5.09361 60.3888 4.09945 58.9739C2.30226 56.4126 3.5308 52.2106 5.97059 52.3494C8.10204 52.4709 6.84756 54.6154 8.12799 54.7892C9.04821 54.9107 10.7066 53.261 12.3386 54.7282C12.5384 54.9064 12.7382 55.1321 12.9375 55.4141C14.7524 57.9931 12.3823 60.2244 10.7066 60.6409Z" fill="url(#paint14_radial_3200_4231)"/>
<path d="M5.5416 55.555C6.44531 55.555 7.17792 54.9138 7.17792 54.1228C7.17792 53.3318 6.44531 52.6906 5.5416 52.6906C4.63788 52.6906 3.90527 53.3318 3.90527 54.1228C3.90527 54.9138 4.63788 55.555 5.5416 55.555Z" fill="#F8DEF9"/>
<path d="M10.2971 58.0886C11.2008 58.0886 11.9334 57.4474 11.9334 56.6564C11.9334 55.8654 11.2008 55.2242 10.2971 55.2242C9.39337 55.2242 8.66077 55.8654 8.66077 56.6564C8.66077 57.4474 9.39337 58.0886 10.2971 58.0886Z" fill="#F8DEF9"/>
<path d="M27.0167 43.9935C27.2204 43.9235 31.1179 43.5144 31.1602 36.595C31.1767 33.9274 28.7209 41.2389 24.6846 39.8755C24.5172 39.8188 23.1231 39.741 24.5388 42.2175C24.8709 42.7983 26.656 45.3103 27.0167 43.9935Z" fill="#333300"/>
<path d="M28.0173 56.1297C25.8767 55.3903 21.44 51.4249 23.1827 44.8173C23.2259 44.6487 23.2735 44.493 23.3254 44.346C25.2497 38.6854 31.3686 47.7189 31.654 48.1297C32.1946 48.9124 32.5059 49.6865 32.64 50.426C33.2886 53.9892 29.7859 56.7438 28.0173 56.1297Z" fill="url(#paint15_linear_3200_4231)"/>
<path d="M32.64 50.426C32.4281 53.267 29.6216 55.2735 28.1124 54.7503C26.106 54.0541 21.9979 50.4173 23.3254 44.346C25.2497 38.6854 31.3687 47.7189 31.6541 48.1297C32.1946 48.9124 32.506 49.6865 32.64 50.426Z" fill="url(#paint16_linear_3200_4231)"/>
<path d="M9.75917 49.2657C9.52393 49.6489 9.24933 49.5758 9.19312 49.5758C8.2076 49.5672 7.10144 48.8523 7.10144 47.45C7.10144 46.6123 7.36566 45.4322 8.04285 45.1044C8.3996 44.9315 8.94576 45.1914 9.53171 45.712C10.3261 46.4199 10.471 47.9594 9.75917 49.2657Z" fill="#333300"/>
<path d="M16.118 52.7403C15.8482 53.1511 15.5563 53.0634 15.4737 53.0634C15.1697 53.059 14.8571 52.9808 14.5751 52.8247C13.9412 52.4861 13.3864 51.9101 13.3864 50.9375C13.3864 50.0562 13.6942 48.8095 14.406 48.5137C14.771 48.362 15.2916 48.6525 15.8473 49.1477C16.6456 49.8638 16.8168 51.3946 16.118 52.7403Z" fill="#333300"/>
<path d="M5.1858 52.7152C4.79402 53.0456 4.21586 52.9712 3.80332 53.1382C4.07488 53.4651 4.71359 53.9005 5.13175 54.2266C7.3618 55.821 4.30191 54.3113 3.67705 53.6203C3.4444 53.4275 3.26148 52.9942 3.61218 52.8125C4.15013 52.6115 4.65996 52.8627 5.1858 52.7152Z" fill="#CC66CC"/>
<path d="M10.3338 55.1719C9.91479 55.629 9.13555 55.7713 8.71003 56.1332C8.6923 56.1678 8.69966 56.157 8.71782 56.2002C9.04993 56.5829 9.50484 56.8696 9.91695 57.1983C10.2664 57.4625 10.6162 57.7315 10.9522 58.0294C10.0026 57.6636 9.03349 57.2273 8.36149 56.4264C7.90182 55.4759 9.8136 55.4664 10.3338 55.1719Z" fill="#CC66CC"/>
<path d="M11.0478 58.083C10.7637 58.2517 10.4606 58.4091 10.1453 58.4783C9.75399 58.563 9.34318 58.5116 8.9181 58.1769C8.14967 57.5706 8.14059 56.2011 8.88394 56.0238C9.53345 55.869 10.4299 56.186 11.0509 56.4791C11.1265 56.5146 11.207 56.5643 11.2922 56.6309C12.0671 57.2407 11.5127 57.808 11.0478 58.083Z" fill="#333300"/>
<path d="M3.32281 54.0778C3.37081 54.4048 3.43913 54.7395 3.58443 55.0275C3.76519 55.3847 4.064 55.6718 4.59156 55.7911C5.54637 56.0065 6.61621 55.1507 6.2854 54.4614C5.99654 53.859 5.18573 53.363 4.56691 53.0651C4.49167 53.0283 4.40259 52.9976 4.29708 52.9734C3.33492 52.7555 3.24367 53.5438 3.32281 54.0778Z" fill="#333300"/>
</g>
<defs>
<linearGradient id="paint0_linear_3200_4231" x1="33.9938" y1="43.9082" x2="57.3205" y2="43.9082" gradientUnits="userSpaceOnUse">
<stop offset="0.1919" stop-color="#FFFF00"/>
<stop offset="1" stop-color="#FFDA0D"/>
</linearGradient>
<linearGradient id="paint1_linear_3200_4231" x1="18.0757" y1="24.3216" x2="43.1005" y2="24.3216" gradientUnits="userSpaceOnUse">
<stop stop-color="#F2A73B"/>
<stop offset="0.4772" stop-color="#E85A24"/>
</linearGradient>
<linearGradient id="paint2_linear_3200_4231" x1="24.7092" y1="20.5634" x2="49.5525" y2="20.5634" gradientUnits="userSpaceOnUse">
<stop stop-color="#F2A73B"/>
<stop offset="0.4772" stop-color="#E85A24"/>
</linearGradient>
<linearGradient id="paint3_linear_3200_4231" x1="31.321" y1="16.7995" x2="56.0086" y2="16.7995" gradientUnits="userSpaceOnUse">
<stop stop-color="#F2A73B"/>
<stop offset="0.4772" stop-color="#E85A24"/>
</linearGradient>
<linearGradient id="paint4_linear_3200_4231" x1="7.87597" y1="28.7794" x2="34.0397" y2="28.7794" gradientUnits="userSpaceOnUse">
<stop stop-color="#FF9933"/>
<stop offset="1" stop-color="#FFC800"/>
</linearGradient>
<linearGradient id="paint5_linear_3200_4231" x1="48.3541" y1="57.5764" x2="48.3541" y2="38.6537" gradientUnits="userSpaceOnUse">
<stop offset="0.3988" stop-color="white"/>
<stop offset="0.5418" stop-color="#FCFCFC"/>
<stop offset="0.6514" stop-color="#F2F2F2"/>
<stop offset="0.75" stop-color="#E2E2E2"/>
<stop offset="0.8421" stop-color="#CBCBCB"/>
<stop offset="0.9289" stop-color="#ADADAD"/>
<stop offset="0.9976" stop-color="#909090"/>
</linearGradient>
<linearGradient id="paint6_linear_3200_4231" x1="20.3363" y1="33.4009" x2="24.3863" y2="27.1645" gradientUnits="userSpaceOnUse">
<stop offset="0.3988" stop-color="white"/>
<stop offset="0.5418" stop-color="#FCFCFC"/>
<stop offset="0.6514" stop-color="#F2F2F2"/>
<stop offset="0.75" stop-color="#E2E2E2"/>
<stop offset="0.8421" stop-color="#CBCBCB"/>
<stop offset="0.9289" stop-color="#ADADAD"/>
<stop offset="0.9976" stop-color="#909090"/>
</linearGradient>
<linearGradient id="paint7_linear_3200_4231" x1="2.97252" y1="39.2712" x2="13.35" y2="39.2712" gradientUnits="userSpaceOnUse">
<stop stop-color="#4E3E3F"/>
<stop offset="0.2591" stop-color="#645051"/>
<stop offset="0.7964" stop-color="#9D7D7E"/>
<stop offset="0.967" stop-color="#B08D8E"/>
</linearGradient>
<linearGradient id="paint8_linear_3200_4231" x1="3.08765" y1="38.8029" x2="13.3493" y2="38.8029" gradientUnits="userSpaceOnUse">
<stop stop-color="#F0D6A8"/>
<stop offset="0.8081" stop-color="white"/>
</linearGradient>
<radialGradient id="paint9_radial_3200_4231" cx="0" cy="0" r="1" gradientUnits="userSpaceOnUse" gradientTransform="translate(16.5847 48.0199) scale(13.28)">
<stop offset="0.7681" stop-color="#EFF7EF" stop-opacity="0"/>
<stop offset="0.7869" stop-color="#EAE2D4" stop-opacity="0.0243"/>
<stop offset="0.8251" stop-color="#E1BDA3" stop-opacity="0.0737"/>
<stop offset="0.8631" stop-color="#D99E7B" stop-opacity="0.1228"/>
<stop offset="0.9" stop-color="#D4855C" stop-opacity="0.1707"/>
<stop offset="0.9358" stop-color="#CF7445" stop-opacity="0.2169"/>
<stop offset="0.9697" stop-color="#CD6A38" stop-opacity="0.2608"/>
<stop offset="1" stop-color="#CC6633" stop-opacity="0.3"/>
</radialGradient>
<radialGradient id="paint10_radial_3200_4231" cx="0" cy="0" r="1" gradientUnits="userSpaceOnUse" gradientTransform="translate(10.0627 56.5702) scale(5.71252 5.71252)">
<stop stop-color="#532E39"/>
<stop offset="0.9517" stop-color="#B08D8E"/>
</radialGradient>
<linearGradient id="paint11_linear_3200_4231" x1="10.7959" y1="47.7339" x2="29.6836" y2="47.7339" gradientUnits="userSpaceOnUse">
<stop stop-color="#F0D6A8"/>
<stop offset="0.8081" stop-color="white"/>
</linearGradient>
<radialGradient id="paint12_radial_3200_4231" cx="0" cy="0" r="1" gradientUnits="userSpaceOnUse" gradientTransform="translate(16.5964 54.3069) scale(2.97323)">
<stop stop-color="#FF94D1"/>
<stop offset="0.2929" stop-color="#FF97D2" stop-opacity="0.7071"/>
<stop offset="0.4737" stop-color="#FF9FD6" stop-opacity="0.5263"/>
<stop offset="0.6241" stop-color="#FFAEDC" stop-opacity="0.3759"/>
<stop offset="0.7577" stop-color="#FFC2E5" stop-opacity="0.2423"/>
<stop offset="0.879" stop-color="#FFDCF0" stop-opacity="0.121"/>
<stop offset="0.9921" stop-color="#FFFCFE" stop-opacity="0.01"/>
<stop offset="1" stop-color="white" stop-opacity="0"/>
</radialGradient>
<radialGradient id="paint13_radial_3200_4231" cx="0" cy="0" r="1" gradientUnits="userSpaceOnUse" gradientTransform="translate(7.58805 49.4816) scale(2.27801)">
<stop stop-color="#FF94D1"/>
<stop offset="0.2929" stop-color="#FF97D2" stop-opacity="0.7071"/>
<stop offset="0.4737" stop-color="#FF9FD6" stop-opacity="0.5263"/>
<stop offset="0.6241" stop-color="#FFAEDC" stop-opacity="0.3759"/>
<stop offset="0.7577" stop-color="#FFC2E5" stop-opacity="0.2423"/>
<stop offset="0.879" stop-color="#FFDCF0" stop-opacity="0.121"/>
<stop offset="0.9921" stop-color="#FFFCFE" stop-opacity="0.01"/>
<stop offset="1" stop-color="white" stop-opacity="0"/>
</radialGradient>
<radialGradient id="paint14_radial_3200_4231" cx="0" cy="0" r="1" gradientUnits="userSpaceOnUse" gradientTransform="translate(8.4172 56.6932) scale(4.77807 4.77808)">
<stop offset="0.1424" stop-color="#FFCCFF"/>
<stop offset="0.4207" stop-color="#FDCBFC"/>
<stop offset="0.6094" stop-color="#F7C6F3"/>
<stop offset="0.7715" stop-color="#EDBFE4"/>
<stop offset="0.9178" stop-color="#DFB5CF"/>
<stop offset="1" stop-color="#D4AEBF"/>
</radialGradient>
<linearGradient id="paint15_linear_3200_4231" x1="22.786" y1="49.3514" x2="32.7191" y2="49.3514" gradientUnits="userSpaceOnUse">
<stop stop-color="#4E3E3F"/>
<stop offset="0.2591" stop-color="#645051"/>
<stop offset="0.7964" stop-color="#9D7D7E"/>
<stop offset="0.967" stop-color="#B08D8E"/>
</linearGradient>
<linearGradient id="paint16_linear_3200_4231" x1="27.8532" y1="54.8334" x2="27.8532" y2="42.487" gradientUnits="userSpaceOnUse">
<stop stop-color="#F0D6A8"/>
<stop offset="0.8081" stop-color="white"/>
</linearGradient>
<clipPath id="clip0_3200_4231">
<rect width="64" height="64" fill="white"/>
</clipPath>
</defs>
</svg>
