<svg width="64" height="64" viewBox="0 0 64 64" fill="none" xmlns="http://www.w3.org/2000/svg">
<g clip-path="url(#clip0_3200_4135)">
<path d="M58.8597 64H5.14032C2.30141 64 0 61.6986 0 58.8597V5.14032C0 2.30141 2.30141 0 5.14032 0H58.8597C61.6986 0 64 2.30141 64 5.14032V58.8597C64 61.6986 61.6986 64 58.8597 64Z" fill="white"/>
<path d="M47.6956 26.1211C47.6956 28.6214 46.2444 30.8735 43.3259 29.9412C41.1819 29.2562 39.0288 25.0231 39.0288 22.5228C39.0288 20.0225 42.2171 18.4307 44.1661 19.5563C46.1151 20.682 47.6956 23.6208 47.6956 26.1211Z" fill="#666666"/>
<path d="M44.6064 30.0198C46.1201 29.3186 46.3519 26.6014 45.124 23.9505C43.8962 21.2997 41.6738 19.7192 40.16 20.4204C38.6463 21.1215 38.4145 23.8388 39.6424 26.4896C40.8702 29.1404 43.0927 30.7209 44.6064 30.0198Z" fill="#CCCCCC"/>
<path d="M43.439 28.3545C44.4028 27.9844 44.6459 26.2831 43.9821 24.5547C43.3183 22.8262 41.9989 21.725 41.0351 22.0951C40.0713 22.4653 39.8282 24.1665 40.492 25.895C41.1558 27.6235 42.4752 28.7247 43.439 28.3545Z" fill="#AAAAAA"/>
<path d="M26.2702 17.7989L7.55884 28.5362L11.5502 45.8551C11.654 46.3005 12.1556 46.5211 12.5534 46.2832L26.3307 38.2659L26.2702 17.7989ZM17.1069 36.9859L16.934 37.0897C16.9426 37.1373 16.9556 37.2065 16.9556 37.28V39.5676C16.9556 39.8011 16.8259 40.0346 16.6183 40.1514L14.3869 41.4314C14.3178 41.4789 14.2356 41.5049 14.1794 41.5135V38.9103C14.1794 38.7589 14.2615 38.6205 14.3869 38.5384L17.1069 36.973C17.1415 36.9514 17.1761 36.9384 17.2151 36.9297C17.1761 36.9514 17.1415 36.9643 17.1069 36.9859ZM17.1069 31.693L16.934 31.7968C16.9426 31.853 16.9556 31.9135 16.9556 31.9827V34.2703C16.9556 34.5168 16.8259 34.7373 16.6183 34.8541L14.3869 36.147C14.3178 36.1859 14.2356 36.2076 14.1794 36.2205V33.6173C14.1794 33.4659 14.2615 33.3232 14.3869 33.2541L17.1069 31.68C17.1415 31.6541 17.1761 31.6454 17.2151 31.6324C17.1761 31.6541 17.1415 31.667 17.1069 31.693ZM17.1069 25.933L16.934 26.0368C16.9426 26.093 16.9556 26.1535 16.9556 26.2227V28.5103C16.9556 28.7568 16.8259 28.9773 16.6183 29.0941L14.3869 30.387C14.3178 30.4259 14.2356 30.4476 14.1794 30.4605V27.8573C14.1794 27.7059 14.2615 27.5632 14.3869 27.4941L17.1069 25.92C17.1415 25.8941 17.1761 25.8854 17.2151 25.8724C17.1761 25.8941 17.1415 25.907 17.1069 25.933ZM22.8842 36.1686C22.8842 36.4022 22.7459 36.627 22.534 36.7524L20.3069 38.0368C20.2464 38.0714 20.1772 38.0973 20.108 38.1189V35.5157C20.108 35.3643 20.1902 35.213 20.3156 35.1438L22.8496 33.6822C22.8713 33.7427 22.8842 33.7989 22.8842 33.8724V36.1686ZM23.0269 28.2941L22.8496 28.3978C22.8713 28.4454 22.8842 28.5146 22.8842 28.5881V30.8757C22.8842 31.1178 22.7459 31.3427 22.534 31.4595L20.3069 32.7395C20.2464 32.787 20.1772 32.813 20.108 32.8216V30.2184C20.108 30.067 20.1902 29.9286 20.3156 29.8465L23.0269 28.2811C23.0442 28.2724 23.0615 28.2638 23.0788 28.2638C23.0615 28.2724 23.0442 28.2811 23.0269 28.2941ZM23.0269 22.5341L22.8496 22.6378C22.8713 22.6854 22.8842 22.7546 22.8842 22.8281V25.1157C22.8842 25.3578 22.7459 25.5827 22.534 25.6995L20.3069 26.9795C20.2464 27.027 20.1772 27.053 20.108 27.0616V24.4584C20.108 24.307 20.1902 24.1687 20.3156 24.0865L23.0269 22.5211C23.0442 22.5124 23.0615 22.5038 23.0788 22.5038C23.0615 22.5124 23.0442 22.5211 23.0269 22.5341Z" fill="url(#paint0_linear_3200_4135)"/>
<path d="M17.7473 37.3483V40.2192C17.7473 40.3593 17.6656 40.5111 17.5371 40.5812L14.818 42.1453C14.5261 42.3087 14.1763 42.1103 14.1763 41.7833V41.5148C14.2346 41.5031 14.3164 41.4798 14.3864 41.4331L16.6156 40.1492C16.8258 40.0324 16.9542 39.7989 16.9542 39.5658V37.2783C16.9542 37.2082 16.9425 37.1382 16.9309 37.0914L17.106 36.9864C17.2344 36.9046 17.3745 36.9046 17.4913 36.963C17.6305 37.0218 17.7473 37.1619 17.7473 37.3483Z" fill="#555400"/>
<path d="M23.676 33.9524V36.8117C23.676 36.9635 23.5942 37.1036 23.4658 37.1853L20.7467 38.7494C20.6182 38.8195 20.4781 38.8195 20.3614 38.7728C20.2096 38.7027 20.1045 38.5509 20.1045 38.3758V38.1189C20.1745 38.0956 20.2446 38.0722 20.303 38.0372L22.5322 36.7533C22.7423 36.6249 22.882 36.403 22.882 36.17V33.8707C22.882 33.8007 22.8703 33.7423 22.847 33.6839L23.0221 33.5788C23.1505 33.5088 23.2907 33.4971 23.4074 33.5555C23.4658 33.5788 23.5121 33.6022 23.5475 33.6489C23.6292 33.7189 23.676 33.824 23.676 33.9524Z" fill="#555400"/>
<path d="M17.7473 32.0653V34.9246C17.7473 35.0296 17.7006 35.1347 17.6189 35.2165C17.5955 35.2515 17.5722 35.2748 17.5371 35.2865L14.818 36.8619C14.6896 36.9319 14.5495 36.9319 14.4331 36.8852C14.3864 36.8619 14.3514 36.8268 14.3047 36.7918C14.223 36.7101 14.1763 36.6167 14.1763 36.4882V36.2197C14.2346 36.208 14.3164 36.1847 14.3864 36.1496L16.6156 34.8541C16.8258 34.7373 16.9542 34.5155 16.9542 34.2707V31.9832C16.9542 31.9131 16.9425 31.8547 16.9309 31.7963L17.106 31.6913C17.2344 31.6095 17.3745 31.6095 17.4913 31.6679C17.6305 31.7267 17.7473 31.8785 17.7473 32.0653Z" fill="#555400"/>
<path d="M23.676 28.6577V31.5287C23.676 31.6337 23.6292 31.7388 23.5475 31.8205C23.5242 31.8439 23.4891 31.8672 23.4541 31.8906L20.7467 33.4547C20.7116 33.4664 20.6766 33.4781 20.6416 33.5014C20.4898 33.5364 20.338 33.5014 20.2329 33.3963C20.1512 33.3146 20.1045 33.2095 20.1045 33.0811V32.8242C20.1745 32.8125 20.2446 32.7892 20.303 32.7425L22.5322 31.4586C22.7423 31.3418 22.882 31.12 22.882 30.8752V28.5877C22.882 28.5176 22.8703 28.4476 22.847 28.4009L23.0221 28.2958C23.1505 28.2141 23.2907 28.2141 23.4074 28.2724C23.5592 28.3308 23.676 28.4709 23.676 28.6577Z" fill="#555400"/>
<path d="M17.7473 26.3036V29.1628C17.7473 29.2679 17.7006 29.373 17.6189 29.4547C17.5955 29.4897 17.5722 29.5131 17.5371 29.5248L14.818 31.1001C14.6896 31.1702 14.5495 31.1702 14.4331 31.1235C14.3864 31.1001 14.3514 31.0651 14.3047 31.0301C14.223 30.9483 14.1763 30.8549 14.1763 30.7265V30.4579C14.2346 30.4463 14.3164 30.4229 14.3864 30.3879L16.6156 29.0923C16.8258 28.9756 16.9542 28.7537 16.9542 28.509V26.2214C16.9542 26.1513 16.9425 26.093 16.9309 26.0346L17.106 25.9295C17.2344 25.8478 17.3745 25.8478 17.4913 25.9062C17.6305 25.965 17.7473 26.1168 17.7473 26.3036Z" fill="#555400"/>
<path d="M23.676 22.8956V25.7665C23.676 25.8716 23.6292 25.9767 23.5475 26.0584C23.5242 26.0817 23.4891 26.1051 23.4541 26.1284L20.7467 27.6926C20.7116 27.7042 20.6766 27.7159 20.6416 27.7393C20.4898 27.7743 20.338 27.7393 20.2329 27.6342C20.1512 27.5524 20.1045 27.4474 20.1045 27.3189V27.0621C20.1745 27.0504 20.2446 27.027 20.303 26.9803L22.5322 25.6964C22.7423 25.5797 22.882 25.3579 22.882 25.1131V22.8255C22.882 22.7555 22.8703 22.6854 22.847 22.6387L23.0221 22.5336C23.1505 22.4519 23.2907 22.4519 23.4074 22.5103C23.5592 22.5687 23.676 22.7088 23.676 22.8956Z" fill="#555400"/>
<path d="M26.2703 18.0411L26.3611 38.5903L52.147 53.44L56.6443 35.04L26.2703 18.0411ZM32.2595 38.6335C32.1903 38.6205 32.1211 38.5859 32.0605 38.5513L29.8249 37.2627C29.613 37.1459 29.4746 36.9124 29.4746 36.6789V34.374C29.4746 34.3135 29.4832 34.2443 29.5092 34.1838L32.0476 35.6497C32.1773 35.7319 32.2595 35.8703 32.2595 36.0216V38.6335ZM32.3978 33.5524C32.3286 33.5438 32.2595 33.5178 32.1989 33.4832L29.9632 32.1859C29.7557 32.0649 29.613 31.8443 29.613 31.5978V29.3059C29.613 29.2324 29.6259 29.1632 29.6476 29.1157L32.1903 30.5816C32.32 30.6508 32.3978 30.7892 32.3978 30.9449V33.5524ZM32.3978 28.1903C32.3286 28.1773 32.2595 28.1557 32.1989 28.1211L29.9632 26.8195C29.7557 26.7027 29.613 26.4822 29.613 26.2357V23.9395C29.613 23.8703 29.6259 23.8011 29.6476 23.7535L32.1903 25.2195C32.32 25.2886 32.3978 25.427 32.3978 25.5784V28.1903ZM38.4865 42.253C38.4303 42.24 38.3481 42.2184 38.2746 42.1708L36.0389 40.8822C35.8313 40.7654 35.7016 40.5405 35.7016 40.2984V38.0022C35.7016 37.933 35.7146 37.8595 35.7232 37.8162L35.5503 37.7081C35.5157 37.6865 35.4768 37.6735 35.4422 37.6519C35.4768 37.6605 35.5157 37.6735 35.5503 37.6995L38.2659 39.2649C38.4043 39.347 38.4865 39.4897 38.4865 39.6411V42.253ZM38.6292 37.1805C38.5686 37.1719 38.4865 37.1373 38.4173 37.0984L36.1816 35.814C35.9697 35.6973 35.84 35.4638 35.84 35.2259V32.9211C35.84 32.8649 35.853 32.7913 35.8659 32.7351L38.4173 34.1968C38.547 34.2659 38.6292 34.4216 38.6292 34.573V37.1805ZM38.6292 31.8184C38.5686 31.8097 38.4865 31.7708 38.4173 31.7362L36.1816 30.4519C35.9697 30.3351 35.84 30.0973 35.84 29.8638V27.5589C35.84 27.4984 35.853 27.4292 35.8659 27.373L38.4173 28.8346C38.547 28.9038 38.6292 29.0551 38.6292 29.2108V31.8184ZM44.7135 45.8811C44.6443 45.8551 44.5751 45.8335 44.5059 45.7989L42.2703 44.5103C42.0584 44.3805 41.9286 44.16 41.9286 43.9265V41.6173C41.9286 41.5481 41.9416 41.4919 41.9546 41.4313L44.493 42.8973C44.6313 42.9665 44.7135 43.1049 44.7135 43.2692V45.8811ZM44.8562 40.8C44.787 40.787 44.7135 40.7654 44.6443 40.7178L42.4086 39.4292C42.1968 39.3124 42.0713 39.0919 42.0713 38.8454V36.5492C42.0713 36.48 42.08 36.4108 42.093 36.3632L41.9157 36.2595C41.8811 36.2335 41.8465 36.2205 41.8119 36.1989C41.8465 36.2119 41.8811 36.2205 41.9157 36.2465L44.6313 37.8162C44.774 37.8984 44.8562 38.0368 44.8562 38.1881V40.8ZM44.8562 35.4378C44.787 35.4249 44.7135 35.4032 44.6443 35.3557L42.4086 34.067C42.1968 33.9503 42.0713 33.7297 42.0713 33.4832V31.187C42.0713 31.1178 42.08 31.0486 42.093 31.0011L41.9157 30.893C41.8811 30.8713 41.8465 30.8584 41.8119 30.8368C41.8465 30.8497 41.8811 30.8584 41.9157 30.8843L44.6313 32.4541C44.774 32.5319 44.8562 32.6746 44.8562 32.8259V35.4378ZM50.9319 49.4962C50.8627 49.4876 50.7892 49.4616 50.733 49.414L48.4973 48.1297C48.2854 48.013 48.147 47.7751 48.147 47.5416V45.2497C48.147 45.1762 48.1557 45.107 48.1686 45.0595L48.0043 44.9557L50.72 46.5124C50.8497 46.5946 50.9319 46.733 50.9319 46.8886V49.4962ZM51.0703 44.4281C51.0011 44.4065 50.9319 44.3805 50.8713 44.3459L48.6357 43.0573C48.4281 42.9319 48.2854 42.707 48.2854 42.4735V40.1686C48.2854 40.0995 48.2984 40.0389 48.307 39.9784L50.8627 41.4443C50.9881 41.5135 51.0703 41.6562 51.0703 41.8162V44.4281ZM51.0703 39.0659C51.0011 39.0443 50.9319 39.0184 50.8713 38.9838L48.6357 37.6951C48.4281 37.5697 48.2854 37.3449 48.2854 37.1113V34.8065C48.2854 34.733 48.2984 34.6768 48.307 34.6162L50.8627 36.0822C50.9881 36.1513 51.0703 36.2897 51.0703 36.4541V39.0659Z" fill="url(#paint1_linear_3200_4135)"/>
<path opacity="0.56" d="M50.931 49.4978V49.7556C50.931 49.8844 50.8843 49.9895 50.8021 50.0717C50.6966 50.1772 50.5448 50.2122 50.3926 50.1772C50.3576 50.1538 50.3221 50.1422 50.2871 50.1305L47.5714 48.5621C47.5364 48.5387 47.5013 48.5154 47.478 48.492C47.3958 48.4098 47.3491 48.3048 47.3491 48.1992V45.3192C47.3491 45.1904 47.3958 45.0853 47.478 45.0148C47.5316 44.9612 47.6008 44.9236 47.6756 44.905C47.7474 44.886 47.8235 44.8859 47.8996 44.9093C47.9346 44.921 47.9697 44.9327 48.0051 44.956L48.169 45.0615C48.1573 45.1082 48.1457 45.1787 48.1457 45.2488V47.5432C48.1457 47.7772 48.2862 48.0116 48.4968 48.1288L50.7329 49.4165C50.7908 49.4628 50.8609 49.4862 50.931 49.4978Z" fill="#555400"/>
<path opacity="0.56" d="M50.9431 49.4975V49.7669C50.9431 49.8958 50.8964 49.9892 50.8025 50.0713C50.697 50.1769 50.5452 50.2119 50.393 50.1769C50.358 50.1769 50.3225 50.1535 50.2875 50.1418L47.5601 48.5734C47.5251 48.5501 47.4897 48.5267 47.478 48.4912C47.3958 48.4091 47.3491 48.304 47.3491 48.1985V45.3185C47.3491 45.1896 47.3958 45.0845 47.478 45.0141C47.5835 44.9085 47.7474 44.8618 47.8996 44.9085C47.9346 44.9202 47.9697 44.9319 48.0051 44.9552L48.169 45.0608C48.1573 45.1075 48.1457 45.1779 48.1457 45.248V47.5425C48.1457 47.7764 48.2862 48.0108 48.4968 48.128L50.7329 49.4158C50.7913 49.4625 50.8618 49.4858 50.9318 49.4979L50.9431 49.4975Z" fill="#555400"/>
<path opacity="0.56" d="M44.7153 45.8802V46.1379C44.7153 46.1963 44.7036 46.2668 44.6803 46.3135C44.6336 46.4069 44.5514 46.4891 44.4459 46.5358C44.3292 46.5825 44.1886 46.5825 44.0598 46.5124L41.3441 44.9436C41.3091 44.9202 41.2857 44.9085 41.2619 44.8735C41.1802 44.7913 41.1331 44.6863 41.1331 44.5691V41.6895C41.1331 41.5723 41.1798 41.4672 41.2502 41.3968C41.3908 41.2562 41.5897 41.2212 41.7769 41.3267L41.9525 41.4322C41.9408 41.4906 41.9292 41.5494 41.9292 41.6195V43.9256C41.9292 44.1596 42.058 44.3823 42.2686 44.5111L44.5043 45.7989C44.5748 45.8335 44.6448 45.8569 44.7153 45.8802Z" fill="#555400"/>
<path opacity="0.56" d="M44.7153 45.8802V46.1379C44.7153 46.1963 44.7036 46.2668 44.6803 46.3135C44.6336 46.419 44.5514 46.5008 44.4459 46.5358C44.3291 46.5825 44.1886 46.5825 44.0597 46.5124L41.344 44.9436C41.309 44.9202 41.2857 44.9085 41.2619 44.8735C41.1685 44.8035 41.1213 44.6863 41.1213 44.5691V41.7012C41.1213 41.584 41.1797 41.4672 41.2498 41.3968C41.3903 41.2562 41.5892 41.2212 41.7765 41.3267L41.952 41.4322C41.9404 41.4906 41.9287 41.5494 41.9287 41.6195V43.9256C41.9287 44.1596 42.0576 44.3823 42.2681 44.5111L44.5038 45.7989C44.5747 45.8335 44.6448 45.8569 44.7153 45.8802Z" fill="#555400"/>
<path opacity="0.56" d="M38.4873 42.2516V42.521C38.4873 42.8137 38.2179 43.001 37.9489 42.9309C37.9139 42.9192 37.8789 42.8959 37.8434 42.8842L35.1156 41.3158C35.0806 41.3041 35.0572 41.2807 35.0339 41.2457C34.9522 41.1636 34.905 41.0585 34.905 40.953V38.0851C34.905 37.8978 35.0222 37.7456 35.1623 37.6872C35.2795 37.6288 35.4196 37.6288 35.5489 37.7106L35.7245 37.8161C35.7128 37.8628 35.7011 37.9333 35.7011 38.0033V40.2978C35.7011 40.5434 35.83 40.7661 36.0406 40.8833L38.2767 42.1711C38.3468 42.2165 38.4289 42.2399 38.4873 42.2516Z" fill="#555400"/>
<path opacity="0.56" d="M38.4873 42.2513V42.5207C38.4873 42.8134 38.2179 43.0007 37.9489 42.9306C37.9139 42.9189 37.8789 42.9189 37.8434 42.8956L35.1156 41.3271C35.0806 41.3038 35.0456 41.2804 35.0339 41.245C34.9522 41.1628 34.905 41.0577 34.905 40.9522V38.0843C34.905 37.8971 35.0222 37.7449 35.1623 37.6865C35.2795 37.6281 35.4196 37.6281 35.5489 37.7098L35.7245 37.8154C35.7128 37.8621 35.7011 37.9325 35.7011 38.0026V40.2971C35.7011 40.5427 35.83 40.7654 36.0406 40.8826L38.2767 42.1704C38.3468 42.2162 38.4289 42.2396 38.4873 42.2513Z" fill="#555400"/>
<path opacity="0.56" d="M32.2598 38.6339V38.8912C32.2598 39.0668 32.1543 39.219 32.0025 39.2891C31.8853 39.3358 31.7452 39.3358 31.6159 39.2657L28.8886 37.6968C28.7597 37.6147 28.678 37.4746 28.678 37.3224V34.4545C28.678 34.3961 28.6897 34.3373 28.713 34.2789C28.7597 34.1734 28.8419 34.0917 28.947 34.0566C29.0641 34.0099 29.2047 34.0099 29.3335 34.08L29.5091 34.1855C29.4858 34.2439 29.4741 34.3144 29.4741 34.3727V36.6789C29.4741 36.9128 29.6146 37.1472 29.8252 37.2644L32.0613 38.5522C32.1193 38.5872 32.1898 38.6223 32.2598 38.6339Z" fill="#555400"/>
<path opacity="0.56" d="M32.2712 38.6339V38.8912C32.2712 39.0785 32.154 39.2307 32.0018 39.2891C31.8846 39.3358 31.7445 39.3358 31.6152 39.2657L28.8878 37.6968C28.759 37.6147 28.6772 37.4746 28.6772 37.3224V34.4545C28.6772 34.3961 28.6889 34.3373 28.7123 34.2789C28.759 34.1851 28.8411 34.1033 28.9462 34.0566C29.0634 34.0099 29.2039 34.0099 29.3328 34.08L29.5084 34.1855C29.485 34.2439 29.4734 34.3144 29.4734 34.3727V36.6789C29.4734 36.9128 29.6139 37.1472 29.8245 37.2644L32.0606 38.5522C32.119 38.5872 32.1895 38.6223 32.2595 38.6344L32.2712 38.6339Z" fill="#555400"/>
<path opacity="0.56" d="M51.0723 44.4285V44.6863C51.0723 44.8618 50.9667 45.014 50.8145 45.0841C50.6973 45.1308 50.5572 45.1308 50.4284 45.0607L47.7006 43.4919C47.5717 43.4097 47.49 43.2696 47.49 43.1174V40.2495C47.49 40.1206 47.5367 40.0156 47.6189 39.9451C47.6656 39.91 47.7006 39.875 47.7477 39.8512C47.8649 39.7929 48.0171 39.7929 48.146 39.8746L48.3099 39.9801C48.2982 40.0385 48.2865 40.0973 48.2865 40.1673V42.4735C48.2865 42.7074 48.4271 42.9301 48.6377 43.059L50.8733 44.3468C50.9313 44.3818 51.0018 44.4052 51.0723 44.4285Z" fill="#555400"/>
<path opacity="0.56" d="M51.0832 44.4285V44.6863C51.0832 44.8852 50.966 45.0257 50.8138 45.0841C50.6966 45.1308 50.5565 45.1308 50.4276 45.0607L47.6999 43.4919C47.571 43.4097 47.4893 43.2696 47.4893 43.1174V40.2495C47.4893 40.1206 47.536 40.0156 47.6181 39.9451C47.6648 39.91 47.6999 39.875 47.747 39.8512C47.8642 39.7929 48.0164 39.7929 48.1453 39.8746L48.3091 39.9801C48.2975 40.0385 48.2858 40.0973 48.2858 40.1673V42.4735C48.2858 42.7074 48.4263 42.9301 48.6369 43.059L50.8726 44.3468C50.931 44.3818 51.0015 44.4052 51.072 44.429L51.0832 44.4285Z" fill="#555400"/>
<path opacity="0.56" d="M44.8558 40.8V41.0694C44.8558 41.1278 44.8441 41.1866 44.8207 41.2333C44.7974 41.2917 44.7624 41.3388 44.7152 41.3738C44.6097 41.4793 44.4575 41.5144 44.3057 41.4793C44.2707 41.456 44.2352 41.4443 44.2002 41.4326L41.4845 39.8642C41.3557 39.7941 41.2739 39.6419 41.2739 39.4897V36.6218C41.2739 36.5634 41.2856 36.5046 41.309 36.4463C41.3323 36.3996 41.3673 36.3529 41.4028 36.3174C41.4378 36.2707 41.4845 36.2473 41.5312 36.2352C41.6484 36.1769 41.789 36.1769 41.9178 36.2586L42.0934 36.3641C42.0817 36.4108 42.07 36.4813 42.07 36.5513V38.8458C42.07 39.0914 42.1989 39.3142 42.4095 39.4313L44.6456 40.7191C44.7152 40.7645 44.7853 40.7879 44.8558 40.8Z" fill="#555400"/>
<path opacity="0.56" d="M44.8557 40.8V41.0694C44.8557 41.1278 44.844 41.1866 44.8206 41.2333C44.7973 41.2917 44.7623 41.3388 44.7151 41.3738C44.6096 41.4793 44.4574 41.5144 44.3056 41.4793C44.2706 41.4677 44.2351 41.4677 44.2001 41.4443L41.4844 39.8759C41.3439 39.7937 41.2617 39.6419 41.2617 39.5014V36.6335C41.2617 36.5634 41.2734 36.5046 41.3084 36.4463C41.3318 36.3996 41.3668 36.3529 41.4023 36.3174C41.4373 36.2707 41.484 36.2473 41.5307 36.2352C41.6479 36.1769 41.7884 36.1769 41.9173 36.2586L42.0929 36.3641C42.0812 36.4108 42.0695 36.4813 42.0695 36.5513V38.8458C42.0695 39.0914 42.1984 39.3142 42.409 39.4313L44.6451 40.7191C44.7151 40.7645 44.7852 40.7879 44.8557 40.8Z" fill="#555400"/>
<path opacity="0.56" d="M38.628 37.1823V37.44C38.628 37.5689 38.5813 37.6623 38.4991 37.7444C38.4524 37.7795 38.4174 37.8145 38.3703 37.8378C38.2531 37.8845 38.113 37.8845 37.9841 37.8145L35.2567 36.2456C35.1279 36.1635 35.0461 36.0233 35.0461 35.8711V33.0032C35.0461 32.8744 35.0928 32.7693 35.175 32.6988C35.21 32.6521 35.2572 32.6288 35.3155 32.605C35.4327 32.5583 35.5616 32.5583 35.69 32.6283L35.8656 32.7338C35.8539 32.7922 35.8423 32.8627 35.8423 32.9211V35.2272C35.8423 35.4612 35.9707 35.6956 36.1817 35.8128L38.4178 37.1005C38.4874 37.1356 38.5696 37.171 38.628 37.1823Z" fill="#555400"/>
<path opacity="0.56" d="M38.628 37.1823V37.44C38.628 37.5689 38.5813 37.6623 38.4991 37.7444C38.4524 37.7795 38.4174 37.8145 38.3703 37.8378C38.2531 37.8845 38.113 37.8845 37.9841 37.8145L35.2567 36.2456C35.1279 36.1635 35.0461 36.0233 35.0461 35.8711V33.0032C35.0461 32.8744 35.0928 32.7693 35.175 32.6988C35.21 32.6521 35.2572 32.6288 35.3155 32.605C35.4327 32.5583 35.5616 32.5583 35.69 32.6283L35.8656 32.7338C35.8539 32.7922 35.8423 32.8627 35.8423 32.9211V35.2272C35.8423 35.4612 35.9707 35.6956 36.1817 35.8128L38.4178 37.1005C38.4874 37.1356 38.5696 37.171 38.628 37.1823Z" fill="#555400"/>
<path opacity="0.56" d="M32.3999 33.5533V33.8227C32.3999 33.9516 32.3532 34.045 32.271 34.1271C32.1538 34.2326 32.0137 34.2677 31.8611 34.2326C31.8261 34.221 31.791 34.2093 31.756 34.1859L29.0399 32.6175C29.0049 32.5941 28.9694 32.5825 28.9461 32.5474C28.8643 32.4653 28.8176 32.3602 28.8176 32.2547V29.3868C28.8176 29.2579 28.8643 29.1528 28.9461 29.0707C29.0866 28.9418 29.2855 28.8951 29.4611 29.0006C29.4611 29.0123 29.4728 29.0123 29.4728 29.0123L29.6483 29.1178C29.625 29.1645 29.6133 29.235 29.6133 29.3051V31.5996C29.6133 31.8452 29.7538 32.0679 29.9644 32.1851L32.2001 33.4845C32.2594 33.5183 32.3298 33.5416 32.3999 33.5533Z" fill="#555400"/>
<path opacity="0.56" d="M32.4116 33.5533V33.8227C32.4116 33.9515 32.3532 34.0566 32.271 34.1271C32.1538 34.2326 32.0137 34.2677 31.8611 34.2326C31.8261 34.2326 31.791 34.2093 31.756 34.1976L29.0282 32.6292C28.9932 32.6058 28.9577 32.5825 28.9461 32.547C28.8643 32.4648 28.8176 32.3598 28.8176 32.2542V29.3864C28.8176 29.2575 28.8643 29.1524 28.9461 29.0702C29.0749 28.9414 29.2855 28.9064 29.4611 29.0002C29.4611 29.0119 29.4728 29.0119 29.4728 29.0119L29.6483 29.1174C29.625 29.1641 29.6133 29.2346 29.6133 29.3046V31.5991C29.6133 31.8447 29.7538 32.0674 29.9644 32.1846L32.2001 33.4841C32.2585 33.5191 32.329 33.5425 32.399 33.5541H32.4116V33.5533Z" fill="#555400"/>
<path opacity="0.56" d="M51.0723 39.0659V39.3237C51.0723 39.4992 50.9667 39.6515 50.8145 39.7215C50.6973 39.7682 50.5572 39.7682 50.4284 39.6982L47.7006 38.1293C47.5717 38.0471 47.49 37.907 47.49 37.7548V34.8869C47.49 34.7581 47.5367 34.653 47.6189 34.5825C47.6656 34.5475 47.7006 34.5124 47.7477 34.4886C47.8649 34.4303 48.0171 34.4303 48.146 34.512L48.3099 34.6175C48.2982 34.6759 48.2865 34.7347 48.2865 34.8048V37.1109C48.2865 37.3449 48.4271 37.5676 48.6377 37.6964L50.8733 38.9842C50.9313 39.0192 51.0018 39.0426 51.0723 39.0659Z" fill="#555400"/>
<path opacity="0.56" d="M51.0832 39.0659V39.3237C51.0832 39.5226 50.966 39.6631 50.8138 39.7215C50.6966 39.7682 50.5565 39.7682 50.4276 39.6982L47.6999 38.1293C47.571 38.0471 47.4893 37.907 47.4893 37.7548V34.8869C47.4893 34.7581 47.536 34.653 47.6181 34.5825C47.6648 34.5475 47.6999 34.5124 47.747 34.4886C47.8642 34.4303 48.0164 34.4303 48.1453 34.512L48.3091 34.6175C48.2975 34.6759 48.2858 34.7347 48.2858 34.8048V37.1109C48.2858 37.3449 48.4263 37.5676 48.6369 37.6964L50.8726 38.9842C50.931 39.0192 51.0015 39.0426 51.072 39.0664H51.0832V39.0659Z" fill="#555400"/>
<path opacity="0.56" d="M44.8558 35.437V35.7064C44.8558 35.7648 44.8441 35.8236 44.8207 35.8703C44.7974 35.9287 44.7624 35.9758 44.7152 36.0108C44.6097 36.1163 44.4575 36.1514 44.3057 36.1163C44.2707 36.093 44.2352 36.0813 44.2002 36.0696L41.4845 34.5012C41.3557 34.4311 41.2739 34.2789 41.2739 34.1267V31.2588C41.2739 31.2004 41.2856 31.1416 41.309 31.0833C41.3323 31.0365 41.3673 30.9898 41.4028 30.9544C41.4378 30.9077 41.4845 30.8843 41.5312 30.8722C41.6484 30.8138 41.789 30.8138 41.9178 30.8956L42.0934 31.0011C42.0817 31.0478 42.07 31.1183 42.07 31.1883V33.4828C42.07 33.7284 42.1989 33.9511 42.4095 34.0683L44.6456 35.3561C44.7152 35.402 44.7853 35.4253 44.8558 35.437Z" fill="#555400"/>
<path opacity="0.56" d="M44.8557 35.437V35.7064C44.8557 35.7648 44.844 35.8236 44.8206 35.8703C44.7973 35.9287 44.7623 35.9758 44.7151 36.0108C44.6096 36.1163 44.4574 36.1514 44.3056 36.1163C44.2706 36.1047 44.2351 36.1047 44.2001 36.0813L41.4844 34.5129C41.3439 34.4307 41.2617 34.2789 41.2617 34.1384V31.2705C41.2617 31.2004 41.2734 31.1416 41.3084 31.0833C41.3318 31.0365 41.3668 30.9898 41.4023 30.9544C41.4373 30.9077 41.484 30.8843 41.5307 30.8722C41.6479 30.8138 41.7884 30.8138 41.9173 30.8956L42.0929 31.0011C42.0812 31.0478 42.0695 31.1183 42.0695 31.1883V33.4828C42.0695 33.7284 42.1984 33.9511 42.409 34.0683L44.6451 35.3561C44.7151 35.402 44.7852 35.4253 44.8557 35.437Z" fill="#555400"/>
<path opacity="0.56" d="M38.628 31.8197V32.0774C38.628 32.2063 38.5813 32.2997 38.4991 32.3818C38.4524 32.4169 38.4174 32.4519 38.3703 32.4753C38.2531 32.522 38.113 32.522 37.9841 32.4519L35.2567 30.883C35.1279 30.8009 35.0461 30.6608 35.0461 30.5086V27.6407C35.0461 27.5118 35.0928 27.4067 35.175 27.3362C35.21 27.2895 35.2572 27.2662 35.3155 27.2424C35.4327 27.1957 35.5616 27.1957 35.69 27.2657L35.8656 27.3713C35.8539 27.4296 35.8423 27.5001 35.8423 27.5585V29.8647C35.8423 30.0986 35.9707 30.333 36.1817 30.4502L38.4178 31.738C38.4874 31.773 38.5696 31.808 38.628 31.8197Z" fill="#555400"/>
<path opacity="0.56" d="M38.628 31.8197V32.0774C38.628 32.2063 38.5813 32.2997 38.4991 32.3818C38.4524 32.4169 38.4174 32.4519 38.3703 32.4753C38.2531 32.522 38.113 32.522 37.9841 32.4519L35.2567 30.883C35.1279 30.8009 35.0461 30.6608 35.0461 30.5086V27.6407C35.0461 27.5118 35.0928 27.4067 35.175 27.3362C35.21 27.2895 35.2572 27.2662 35.3155 27.2424C35.4327 27.1957 35.5616 27.1957 35.69 27.2657L35.8656 27.3713C35.8539 27.4296 35.8423 27.5001 35.8423 27.5585V29.8647C35.8423 30.0986 35.9707 30.333 36.1817 30.4502L38.4178 31.738C38.4874 31.773 38.5696 31.808 38.628 31.8197Z" fill="#555400"/>
<path opacity="0.56" d="M32.3999 28.1907V28.4601C32.3999 28.589 32.3532 28.6824 32.271 28.7645C32.1538 28.8701 32.0137 28.9051 31.8611 28.8701C31.8261 28.8584 31.791 28.8467 31.756 28.8234L29.0399 27.2549C29.0049 27.2316 28.9694 27.2199 28.9461 27.1849C28.8643 27.1027 28.8176 26.9976 28.8176 26.8921V24.0242C28.8176 23.8954 28.8643 23.7903 28.9461 23.7081C29.0866 23.5792 29.2855 23.5325 29.4611 23.6381C29.4611 23.6497 29.4728 23.6497 29.4728 23.6497L29.6483 23.7552C29.625 23.8019 29.6133 23.8724 29.6133 23.9425V26.237C29.6133 26.4826 29.7538 26.7053 29.9644 26.8225L32.2001 28.1219C32.2594 28.1557 32.3298 28.179 32.3999 28.1907Z" fill="#555400"/>
<path opacity="0.56" d="M32.4116 28.1907V28.4601C32.4116 28.589 32.3532 28.694 32.271 28.7645C32.1538 28.87 32.0137 28.9051 31.8611 28.87C31.8261 28.87 31.791 28.8467 31.756 28.835L29.0282 27.2666C28.9932 27.2432 28.9577 27.2199 28.9461 27.1844C28.8643 27.1023 28.8176 26.9972 28.8176 26.8917V24.0238C28.8176 23.8949 28.8643 23.7898 28.9461 23.7077C29.0749 23.5788 29.2855 23.5438 29.4611 23.6376C29.4611 23.6493 29.4728 23.6493 29.4728 23.6493L29.6483 23.7548C29.625 23.8015 29.6133 23.872 29.6133 23.942V26.2365C29.6133 26.4822 29.7538 26.7049 29.9644 26.822L32.2001 28.1215C32.2585 28.1565 32.329 28.1799 32.399 28.1916H32.4116V28.1907Z" fill="#555400"/>
<path d="M51.1607 54.0298L40.3598 60.2659C38.6569 61.2493 36.5592 61.2493 34.8563 60.2664L12.4662 47.3414C11.5477 46.8112 11.5477 45.4854 12.4662 44.9557L25.0452 37.6964C25.3812 37.5027 25.7951 37.5027 26.1311 37.6969L39.463 45.3989L51.1603 52.15C51.8846 52.5669 51.8846 53.6117 51.1607 54.0298Z" fill="#FF6600"/>
<path d="M24.2927 17.9805L28.1665 16.6499V39.3297L25.2389 38.8865L24.2927 17.9805Z" fill="url(#paint2_linear_3200_4135)"/>
<path d="M55.0659 39.2173L41.4702 47.4249C40.8 47.8313 40.0865 48.134 39.3556 48.3416C38.1059 48.6876 36.7913 48.7394 35.5243 48.493C34.5038 48.3113 33.5092 47.9265 32.5924 47.3513L22.1665 40.8043L22.067 40.7438L19.4551 39.1092L8.38916 32.1513L10.9751 45.0984C11.2346 46.3351 12.0086 47.4032 13.1113 48.0216L35.5935 60.614C35.7405 60.6962 35.8875 60.7697 36.0346 60.8303C36.934 61.2108 37.9373 61.254 38.8627 60.9773C39.1654 60.8865 39.4681 60.7611 39.7492 60.6011L52 53.6605C52.3892 53.4313 52.6702 53.0551 52.7827 52.6184L55.7492 38.7027C55.5459 38.893 55.3167 39.0703 55.0659 39.2173ZM16.7697 47.334C16.7005 47.3254 16.6313 47.2994 16.5708 47.2562L14.3438 45.9719C14.1319 45.8551 13.9935 45.6303 13.9935 45.3881V43.1005C13.9935 43.0313 14.0151 42.9578 14.0281 42.9146L13.8508 42.8065C13.8162 42.7849 13.7816 42.7719 13.747 42.7503C13.7816 42.7632 13.8162 42.7719 13.8508 42.7978L16.5578 44.3589C16.6875 44.4411 16.7697 44.5838 16.7697 44.7351V47.334ZM16.7697 42.054C16.7005 42.0281 16.6313 42.0065 16.5708 41.9719L14.3438 40.6876C14.1319 40.5578 13.9935 40.3373 13.9935 40.1038V37.8032C13.9935 37.734 14.0151 37.6735 14.0281 37.6173L16.5578 39.0746C16.6875 39.1481 16.7697 39.2865 16.7697 39.4508V42.054ZM22.0929 50.2876C22.0324 50.2789 21.9502 50.253 21.8811 50.2184L19.654 48.9254C19.4421 48.8086 19.3124 48.5838 19.3124 48.3416V46.054C19.3124 45.9805 19.3254 45.9243 19.3383 45.8638L19.1611 45.76C19.1438 45.747 19.1265 45.7384 19.1092 45.7297C19.1265 45.7297 19.1438 45.7384 19.1611 45.747L21.8681 47.3254C22.0108 47.3946 22.0929 47.533 22.0929 47.6843V50.2876ZM22.0929 45.0032C22.0324 44.9946 21.9502 44.96 21.8811 44.9211L19.654 43.6411C19.4421 43.5243 19.3124 43.2908 19.3124 43.0573V40.7567C19.3124 40.6962 19.3254 40.627 19.3383 40.5708L21.8681 42.0281C22.0108 42.1103 22.0929 42.2486 22.0929 42.4V45.0032ZM27.8443 53.44C27.7751 53.4184 27.7059 53.3924 27.6454 53.3578L25.4183 52.0735C25.2065 51.9481 25.0681 51.7232 25.0681 51.4897V49.1935C25.0681 49.12 25.0811 49.0638 25.1027 49.0032L27.6367 50.4648C27.7621 50.534 27.8443 50.6854 27.8443 50.8367V53.44ZM27.8443 48.1427C27.7751 48.134 27.7059 48.1081 27.6454 48.0605L25.4183 46.7805C25.2065 46.6638 25.0681 46.4389 25.0681 46.1967V43.9092C25.0681 43.8357 25.0811 43.7665 25.1027 43.7189L24.9254 43.6151C24.9081 43.6021 24.8908 43.5935 24.8735 43.5849C24.8908 43.5849 24.9081 43.5935 24.9254 43.6021L27.6367 45.1676C27.7621 45.2497 27.8443 45.3881 27.8443 45.5394V48.1427ZM33.7729 56.8346C33.7167 56.8259 33.6346 56.8 33.5654 56.7524L31.334 55.4724C31.1265 55.3557 30.9967 55.1221 30.9967 54.8886V52.6011C30.9967 52.5276 31.0097 52.4584 31.0183 52.4108L30.8454 52.307C30.8108 52.2854 30.7762 52.2724 30.7373 52.2508C30.7762 52.2594 30.8108 52.2724 30.8454 52.294L33.5654 53.8594C33.6908 53.9416 33.7729 54.08 33.7729 54.2313V56.8346ZM33.7729 51.5416C33.7167 51.5286 33.6346 51.507 33.5654 51.4681L31.334 50.1751C31.1265 50.0584 30.9967 49.8378 30.9967 49.5913V47.3038C30.9967 47.2346 31.0097 47.174 31.0183 47.1178L30.8454 47.014C30.8108 46.9881 30.7762 46.9751 30.7373 46.9535C30.7762 46.9665 30.8108 46.9751 30.8454 47.0011L33.5654 48.5751C33.6908 48.6443 33.7729 48.787 33.7729 48.9384V51.5416ZM43.9956 52.3589L43.8227 52.4627C43.8313 52.5103 43.8443 52.5794 43.8443 52.653V54.9405C43.8443 55.174 43.7146 55.4076 43.507 55.5243L41.2756 56.8043C41.2065 56.8519 41.1243 56.8778 41.0681 56.8865V54.2832C41.0681 54.1319 41.1502 53.9935 41.2756 53.9113L43.9956 52.3459C44.0302 52.3243 44.0648 52.3113 44.1038 52.3027C44.0648 52.3243 44.0302 52.3373 43.9956 52.3589ZM43.9956 47.0659L43.8227 47.1697C43.8313 47.2259 43.8443 47.2865 43.8443 47.3557V49.6432C43.8443 49.8897 43.7146 50.1103 43.507 50.227L41.2756 51.52C41.2065 51.5589 41.1243 51.5805 41.0681 51.5935V48.9903C41.0681 48.8389 41.1502 48.6962 41.2756 48.627L43.9956 47.053C44.0302 47.027 44.0648 47.0184 44.1038 47.0054C44.0648 47.027 44.0302 47.04 43.9956 47.0659ZM49.7729 51.5416C49.7729 51.7751 49.6346 52 49.4227 52.1254L47.1956 53.4097C47.1351 53.4443 47.0659 53.4703 46.9967 53.4919V50.8886C46.9967 50.7373 47.0789 50.5859 47.2043 50.5167L49.7383 49.0551C49.76 49.1157 49.7729 49.1719 49.7729 49.2454V51.5416ZM49.9156 43.667L49.7383 43.7708C49.76 43.8184 49.7729 43.8876 49.7729 43.9611V46.2486C49.7729 46.4908 49.6346 46.7157 49.4227 46.8324L47.1956 48.1124C47.1351 48.16 47.0659 48.1859 46.9967 48.1946V45.5913C46.9967 45.44 47.0789 45.3016 47.2043 45.2194L49.9156 43.654C49.9329 43.6454 49.9502 43.6367 49.9675 43.6367C49.9502 43.6454 49.9329 43.654 49.9156 43.667Z" fill="url(#paint3_linear_3200_4135)"/>
<path d="M30.2029 52.6694V55.5403C30.2029 55.6804 30.2846 55.8322 30.413 55.9023L33.1322 57.4664C33.4241 57.6298 33.7739 57.4313 33.7739 57.1044V56.8359C33.7155 56.8242 33.6338 56.8008 33.5637 56.7541L31.3346 55.4703C31.1244 55.3535 30.996 55.12 30.996 54.8869V52.5993C30.996 52.5293 31.0076 52.4592 31.0193 52.4125L30.8442 52.3074C30.7157 52.2257 30.5756 52.2257 30.4589 52.2841C30.3192 52.3425 30.2029 52.4826 30.2029 52.6694Z" fill="#555400"/>
<path d="M24.2737 49.2731V52.1323C24.2737 52.2841 24.3554 52.4242 24.4838 52.5059L27.203 54.07C27.3314 54.1401 27.4715 54.1401 27.5883 54.0934C27.7401 54.0233 27.8451 53.8716 27.8451 53.6964V53.4396C27.7751 53.4162 27.705 53.3928 27.6467 53.3578L25.4175 52.0739C25.2073 51.9455 25.0676 51.7237 25.0676 51.4906V49.1913C25.0676 49.1213 25.0793 49.0629 25.1027 49.0045L24.9275 48.8994C24.7991 48.8294 24.659 48.8177 24.5422 48.8761C24.4838 48.8994 24.4376 48.9228 24.4021 48.9695C24.3204 49.04 24.2737 49.1446 24.2737 49.2731Z" fill="#555400"/>
<path d="M18.5203 46.1336V48.9929C18.5203 49.0279 18.5203 49.0629 18.5319 49.0979C18.567 49.2147 18.637 49.3081 18.7304 49.3548L21.4496 50.9306C21.7415 51.094 22.0913 50.8839 22.0913 50.557V50.2884C22.0329 50.2767 21.9512 50.2534 21.8811 50.2184L19.6519 48.9228C19.4418 48.806 19.3133 48.5842 19.3133 48.3394V46.0519C19.3133 45.9818 19.325 45.9234 19.3367 45.8651L19.1616 45.76C19.0331 45.6783 18.893 45.6783 18.7763 45.7366C18.637 45.7954 18.5203 45.9472 18.5203 46.1336Z" fill="#555400"/>
<path d="M13.2104 43.1693V46.0285C13.2104 46.1803 13.2922 46.3321 13.4206 46.4021L16.1281 47.9658C16.1631 47.9775 16.1981 48.0008 16.2332 48.0125C16.3849 48.0475 16.525 48.0125 16.6418 47.9074C16.7235 47.8257 16.7702 47.7206 16.7702 47.5922V47.3353C16.7002 47.3236 16.6301 47.3003 16.5717 47.2536L14.3426 45.9697C14.1324 45.8529 13.9927 45.6311 13.9927 45.3864V43.0988C13.9927 43.0287 14.0161 42.9587 14.0277 42.912L13.8526 42.8069C13.7242 42.7252 13.5841 42.7252 13.4673 42.7835C13.4206 42.7952 13.3739 42.8186 13.3389 42.8653C13.3039 42.9003 13.2688 42.947 13.2455 42.9937C13.2221 43.0529 13.2104 43.1113 13.2104 43.1693Z" fill="#555400"/>
<path d="M30.2029 47.3864V50.2456C30.2029 50.3507 30.2496 50.4558 30.3313 50.5375C30.3547 50.5725 30.378 50.5959 30.413 50.6075L33.1322 52.1829C33.2606 52.253 33.4007 52.253 33.517 52.2062C33.5637 52.1829 33.5988 52.1479 33.6455 52.1128C33.7272 52.0311 33.7739 51.9377 33.7739 51.8093V51.5407C33.7155 51.5291 33.6338 51.5057 33.5637 51.4707L31.3346 50.1751C31.1244 50.0584 30.996 49.8365 30.996 49.5918V47.3042C30.996 47.2341 31.0076 47.1758 31.0193 47.1174L30.8442 47.0123C30.7157 46.9306 30.5756 46.9306 30.4589 46.989C30.3192 47.0478 30.2029 47.1995 30.2029 47.3864Z" fill="#555400"/>
<path d="M24.2737 43.9783V46.8493C24.2737 46.9543 24.3204 47.0594 24.4021 47.1412C24.4255 47.1645 24.4605 47.1879 24.4955 47.2112L27.203 48.7753C27.238 48.787 27.273 48.7987 27.3081 48.822C27.4598 48.8571 27.6116 48.822 27.7167 48.7169C27.7984 48.6352 27.8451 48.5301 27.8451 48.4017V48.1448C27.7751 48.1332 27.705 48.1098 27.6467 48.0631L25.4175 46.7792C25.2073 46.6625 25.0676 46.4406 25.0676 46.1959V43.9083C25.0676 43.8382 25.0793 43.7682 25.1027 43.7215L24.9275 43.6164C24.7991 43.5347 24.659 43.5347 24.5422 43.5931C24.3909 43.6514 24.2737 43.7915 24.2737 43.9783Z" fill="#555400"/>
<path d="M18.5203 40.8389V43.6982C18.5203 43.7332 18.5203 43.7682 18.5319 43.8032C18.5553 43.885 18.5903 43.9433 18.6487 44.0017C18.672 44.0368 18.6954 44.0484 18.7304 44.0718L21.4496 45.6359C21.578 45.7059 21.7181 45.7059 21.8344 45.6592C21.8811 45.6359 21.9162 45.6009 21.9629 45.5658C22.0446 45.4958 22.0913 45.3907 22.0913 45.2739V45.0054C22.0329 44.9937 21.9512 44.9587 21.8811 44.9237L19.6519 43.6398C19.4418 43.523 19.3133 43.2895 19.3133 43.0564V40.7572C19.3133 40.6988 19.325 40.6288 19.3367 40.5704L19.1616 40.4653C19.0331 40.3952 18.893 40.3952 18.7763 40.4419C18.7296 40.4653 18.6829 40.4886 18.6478 40.5353C18.567 40.6054 18.5203 40.7222 18.5203 40.8389Z" fill="#555400"/>
<path d="M13.2104 37.8746V40.7455C13.2104 40.8623 13.2572 40.9673 13.3389 41.0491C13.3506 41.0841 13.3856 41.0958 13.4089 41.1191L16.1281 42.6828C16.2565 42.7529 16.3966 42.7529 16.5134 42.7062C16.6652 42.6361 16.7702 42.4843 16.7702 42.3092V42.0523C16.7002 42.029 16.6301 42.0056 16.5717 41.9706L14.3426 40.6867C14.1324 40.5583 13.9927 40.3364 13.9927 40.1033V37.8041C13.9927 37.734 14.0161 37.6757 14.0277 37.6173L13.8526 37.5122C13.6775 37.4071 13.4673 37.4422 13.3393 37.5706C13.2572 37.6411 13.2104 37.7578 13.2104 37.8746Z" fill="#555400"/>
<path d="M44.6365 52.7213V55.5922C44.6365 55.7323 44.5547 55.8841 44.4263 55.9541L41.7072 57.5182C41.4153 57.6817 41.0654 57.4832 41.0654 57.1563V56.8878C41.1238 56.8761 41.2055 56.8527 41.2756 56.806L43.5048 55.5221C43.7149 55.4054 43.8434 55.1719 43.8434 54.9388V52.6512C43.8434 52.5812 43.8317 52.5111 43.82 52.4644L43.9952 52.3593C44.1236 52.2776 44.2637 52.2776 44.3805 52.336C44.5197 52.3948 44.6365 52.5345 44.6365 52.7213Z" fill="#555400"/>
<path d="M50.5651 49.3254V52.1846C50.5651 52.3364 50.4834 52.4765 50.355 52.5583L47.6358 54.1224C47.5074 54.1924 47.3673 54.1924 47.2505 54.1457C47.0987 54.0757 46.9937 53.9239 46.9937 53.7488V53.4919C47.0637 53.4685 47.1338 53.4452 47.1921 53.4102L49.4213 52.1263C49.6315 51.9978 49.7712 51.776 49.7712 51.5429V49.2437C49.7712 49.1736 49.7595 49.1152 49.7361 49.0569L49.9113 48.9518C50.0397 48.8817 50.1798 48.8701 50.2966 48.9284C50.3549 48.9518 50.4012 48.9751 50.4367 49.0218C50.5184 49.0919 50.5651 49.197 50.5651 49.3254Z" fill="#555400"/>
<path d="M44.6365 47.4382V50.2975C44.6365 50.4026 44.5898 50.5076 44.508 50.5894C44.4847 50.6244 44.4613 50.6478 44.4263 50.6594L41.7072 52.2348C41.5787 52.3048 41.4386 52.3048 41.3223 52.2581C41.2756 52.2348 41.2406 52.1998 41.1939 52.1647C41.1121 52.083 41.0654 51.9896 41.0654 51.8612V51.5926C41.1238 51.5809 41.2055 51.5576 41.2756 51.5226L43.5048 50.227C43.7149 50.1102 43.8434 49.8884 43.8434 49.6436V47.3561C43.8434 47.286 43.8317 47.2276 43.82 47.1693L43.9952 47.0642C44.1236 46.9825 44.2637 46.9825 44.3805 47.0408C44.5197 47.0996 44.6365 47.2514 44.6365 47.4382Z" fill="#555400"/>
<path d="M50.5651 44.0303V46.9012C50.5651 47.0063 50.5184 47.1113 50.4367 47.1931C50.4133 47.2164 50.3783 47.2398 50.3433 47.2631L47.6358 48.8272C47.6008 48.8389 47.5658 48.8506 47.5307 48.8739C47.379 48.909 47.2272 48.8739 47.1221 48.7689C47.0404 48.6871 46.9937 48.582 46.9937 48.4536V48.1967C47.0637 48.1851 47.1338 48.1617 47.1921 48.115L49.4213 46.8311C49.6315 46.7144 49.7712 46.4925 49.7712 46.2478V43.9602C49.7712 43.8901 49.7595 43.8201 49.7361 43.7734L49.9113 43.6683C50.0397 43.5866 50.1798 43.5866 50.2966 43.645C50.4484 43.7038 50.5651 43.8434 50.5651 44.0303Z" fill="#555400"/>
<path d="M39.4456 46.1072L39.3574 48.3399L38.8635 60.9756C37.9351 61.2554 36.9332 61.2112 36.0341 60.8281L35.5256 48.4943L35.408 45.6281L39.4456 46.1072Z" fill="url(#paint4_linear_3200_4135)"/>
<path d="M54.9625 33.3829L53.7616 34.0757L26.2572 18.1903L9.97439 27.5918L8.74369 26.8843C8.05093 26.4865 8.05093 25.4919 8.74369 25.0941L23.9804 16.2966C25.4836 15.4348 27.3327 15.4348 28.8358 16.2966L54.9625 31.3786C55.7288 31.821 55.7288 32.941 54.9625 33.3829Z" fill="#333333"/>
<path d="M6.28272 30.4259L6.02153 26.9544C5.97093 26.2811 6.70304 25.8326 7.27991 26.1838L36.6503 44.0735C36.9076 44.2301 37.2293 44.2352 37.4914 44.0865L57.4702 32.736L57.1108 36.0078C56.9647 37.3375 56.2075 38.5237 55.062 39.2156L41.4684 47.4283C38.7333 49.0806 35.3002 49.0508 32.5941 47.3514L6.66845 31.0659C6.44574 30.9258 6.30261 30.6884 6.28272 30.4259Z" fill="#333333"/>
<path d="M22.7416 14.3883L6.92629 23.6709C5.22813 24.6677 5.23981 27.1265 6.94748 28.1072L35.341 44.4134C36.7654 45.2316 38.5181 45.2268 39.9378 44.4017L56.7386 34.6378C58.5142 33.606 58.5129 31.0409 56.736 30.0108L29.7583 14.3697C27.587 13.1109 24.906 13.1178 22.7416 14.3883ZM36.5622 42.9513L8.74121 26.8856C8.05148 26.4873 8.05148 25.4919 8.74164 25.0936L23.981 16.2992C25.4841 15.4318 27.3354 15.4322 28.8381 16.2997L54.9587 31.3782C55.7306 31.8236 55.7306 32.9375 54.9592 33.3829L38.3931 42.9509C37.8266 43.2783 37.1287 43.2783 36.5622 42.9513Z" fill="#666666"/>
<path d="M41.9676 21.469L41.0889 20.96L38.8628 19.6705L36.5959 6.14229L36.3823 4.87742L39.3968 4.82812L41.9676 21.469Z" fill="#353535"/>
<path d="M17.3907 36.6711L14.3395 17.1092C14.0251 15.0949 15.0201 13.1018 16.8191 12.1427L34.0636 2.94572C35.0253 2.43286 36.157 2.34075 37.1888 2.69232L38.7027 3.1468L17.6744 15.5507C17.2947 15.7743 17.0902 16.2071 17.159 16.6422L20.2997 36.493C20.416 37.2285 19.7657 37.8556 19.0349 37.7129L18.2444 37.558C17.8016 37.4716 17.4604 37.117 17.3907 36.6711Z" fill="#352A2B"/>
<path d="M43.068 22.1098L41.9675 21.4694L41.0888 20.96L38.6001 6.36411C38.5015 5.75611 37.836 5.43611 37.3024 5.73968L36.5963 6.14228L23.2488 13.658L18.6572 16.2452C18.3368 16.4342 18.1643 16.8039 18.23 17.1732L18.5504 19.1118L19.0187 21.962L19.0845 22.381L19.3638 24.0402V24.0484L19.75 26.3892L21.0888 34.5042V34.5124L21.3764 36.2703L21.4832 36.8865L21.516 37.1165L21.6475 37.8884L21.6639 38.0035L20.6702 37.4119C20.4894 37.3051 20.0622 37.0668 19.923 36.845V36.8368C19.8983 36.8121 19.8901 36.7793 19.8819 36.7546L19.8572 36.6231L19.7586 36.1055L19.6107 35.2679L19.3971 34.1181V34.1098L19.2657 33.3868L18.9444 31.6541L18.7472 30.5782L18.6321 29.962L18.2953 28.1302L18.172 27.4482L18.057 26.832L17.7201 24.992L17.4161 23.341L17.334 22.9302L16.8168 20.1129L16.5539 18.6672C16.4717 18.2647 16.406 17.8707 16.3813 17.4928C16.2663 15.9732 16.6525 14.6837 18.0981 13.8785L37.2527 3.26746C38.4518 2.59374 39.9632 3.31676 40.185 4.67201L43.068 22.1098Z" fill="#B0B0B0"/>
<path d="M24.022 41.4616C24.022 43.962 22.5708 46.2141 19.6523 45.2817C17.5083 44.5968 15.3552 40.3637 15.3552 37.8634C15.3552 35.363 18.5435 33.7713 20.4925 34.8969C22.4415 36.0225 24.022 38.9613 24.022 41.4616Z" fill="#666666"/>
<path d="M20.9321 45.3602C22.4458 44.659 22.6776 41.9417 21.4497 39.2909C20.2219 36.6401 17.9994 35.0596 16.4857 35.7608C14.972 36.4619 14.7402 39.1792 15.9681 41.83C17.1959 44.4808 19.4184 46.0613 20.9321 45.3602Z" fill="#352A2B"/>
<path d="M19.7661 43.6946C20.7299 43.3244 20.9731 41.6232 20.3093 39.8947C19.6455 38.1662 18.3261 37.065 17.3623 37.4352C16.3985 37.8053 16.1553 39.5066 16.8191 41.235C17.4829 42.9635 18.8023 44.0647 19.7661 43.6946Z" fill="#CCCCCC"/>
</g>
<defs>
<linearGradient id="paint0_linear_3200_4135" x1="7.55884" y1="32.0896" x2="26.3307" y2="32.0896" gradientUnits="userSpaceOnUse">
<stop stop-color="#FFC500"/>
<stop offset="0.4808" stop-color="#FFCE08"/>
<stop offset="1" stop-color="#FFDE14"/>
</linearGradient>
<linearGradient id="paint1_linear_3200_4135" x1="26.2703" y1="35.7405" x2="56.6443" y2="35.7405" gradientUnits="userSpaceOnUse">
<stop stop-color="#FFC500"/>
<stop offset="0.4808" stop-color="#FFCE08"/>
<stop offset="1" stop-color="#FFDE14"/>
</linearGradient>
<linearGradient id="paint2_linear_3200_4135" x1="24.2928" y1="27.9898" x2="28.1664" y2="27.9898" gradientUnits="userSpaceOnUse">
<stop stop-color="#FFC500"/>
<stop offset="0.4808" stop-color="#FFCE08"/>
<stop offset="1" stop-color="#FFDE14"/>
</linearGradient>
<linearGradient id="paint3_linear_3200_4135" x1="8.38916" y1="46.6534" x2="55.7492" y2="46.6534" gradientUnits="userSpaceOnUse">
<stop offset="0.0024" stop-color="#FFF800"/>
<stop offset="0.2172" stop-color="#FFEB00"/>
<stop offset="0.7054" stop-color="#FFD100"/>
<stop offset="1" stop-color="#FFC800"/>
</linearGradient>
<linearGradient id="paint4_linear_3200_4135" x1="35.4081" y1="53.392" x2="39.4457" y2="53.392" gradientUnits="userSpaceOnUse">
<stop offset="0.0024" stop-color="#FFE747" stop-opacity="0"/>
<stop offset="0.4147" stop-color="#FFD723" stop-opacity="0.4133"/>
<stop offset="0.7801" stop-color="#FFCC09" stop-opacity="0.7796"/>
<stop offset="1" stop-color="#FFC800"/>
</linearGradient>
<clipPath id="clip0_3200_4135">
<rect width="64" height="64" fill="white"/>
</clipPath>
</defs>
</svg>
