<svg width="148" height="148" viewBox="0 0 148 148" fill="none" xmlns="http://www.w3.org/2000/svg">
<g clip-path="url(#clip0_1061_715)">
<path d="M136.113 148H11.887C5.322 148 0 142.678 0 136.113V11.887C0 5.322 5.322 0 11.887 0H136.113C142.678 0 148 5.322 148 11.887V136.113C148 142.678 142.678 148 136.113 148Z" fill="white"/>
<path d="M62.689 108.506C61.486 108.506 60.214 108.295 59.108 107.91C57.968 107.516 57.498 106.814 57.304 106.295C57.011 105.511 57.153 104.694 57.344 104.109C51.455 102.116 25.322 87.264 21.765 83.487C21.223 83.57 20.222 83.696 19.151 83.696C17.359 83.696 16.081 83.339 15.351 82.634C14.374 81.697 13.975 80.569 14.256 79.539C14.428 78.912 15.022 77.788 17.075 77.307C18.027 77.081 18.955 77.046 19.774 77.015C21.567 76.946 22.531 76.853 23.141 75.627C23.37 75.168 23.514 74.471 23.68 73.665C24.458 69.896 25.76 63.589 38.612 57.658L38.734 57.604C42.155 56.088 53.721 51.026 58.9 49.55C60.231 49.172 61.936 48.83 63.586 48.5C66.364 47.943 70.17 47.181 70.753 46.352C71.508 45.278 73.066 44.686 75.143 44.686C76.344 44.686 77.618 44.897 78.728 45.281C79.866 45.676 80.335 46.377 80.529 46.896C80.82 47.677 80.68 48.49 80.491 49.072C86.884 51.223 111.538 65.591 115.645 69.269C115.826 69.437 115.969 69.579 116.083 69.704C116.627 69.621 117.62 69.496 118.684 69.496C120.472 69.496 121.751 69.852 122.484 70.555C123.462 71.498 123.858 72.628 123.574 73.657C123.401 74.283 122.804 75.405 120.75 75.884C119.92 76.078 119.055 76.174 118.218 76.266C116.262 76.482 114.414 76.685 113.213 78.091C110.263 81.547 99.21 89.797 99.105 89.872C83.919 100.822 71.524 103.122 70.16 103.349C67.816 103.74 67.763 104.227 67.673 105.035C67.616 105.546 67.546 106.181 67.087 106.839C66.328 107.915 64.768 108.506 62.689 108.506Z" fill="url(#paint0_linear_1061_715)"/>
<path d="M75.1411 45.387C76.2611 45.387 77.4501 45.582 78.4971 45.944C81.0801 46.841 79.5321 49.531 79.5321 49.531C83.8981 50.374 110.575 65.671 115.175 69.792C115.474 70.07 115.687 70.294 115.784 70.465C115.784 70.465 117.169 70.198 118.68 70.198C119.94 70.198 121.288 70.383 121.996 71.063C123.544 72.558 123.33 74.564 120.587 75.205C117.854 75.846 114.62 75.365 112.677 77.639C109.806 81 98.8111 89.219 98.6941 89.305C86.2581 98.272 74.8681 101.859 70.0431 102.659C65.8161 103.364 67.6201 104.847 66.5101 106.438C65.8481 107.38 64.3431 107.806 62.6881 107.806C61.5681 107.806 60.3801 107.611 59.3371 107.249C56.7431 106.352 58.3021 103.652 58.3021 103.652C58.1741 103.631 58.0141 103.588 57.8431 103.535C51.9611 101.784 23.5551 85.345 22.0501 82.73C22.0501 82.73 20.6621 82.997 19.1491 82.997C17.8881 82.997 16.5411 82.812 15.8371 82.132C14.2781 80.638 14.5031 78.631 17.2351 77.99C19.9781 77.339 22.5511 78.385 23.7681 75.94C25.1561 73.154 23.3621 65.468 38.9051 58.294C39.0541 58.23 53.2841 51.878 59.0911 50.224C63.0411 49.103 70.2141 48.335 71.3241 46.755C71.9851 45.813 73.4871 45.387 75.1411 45.387ZM75.1411 43.987C72.8301 43.987 71.0671 44.684 70.1781 45.95C69.5751 46.587 65.7381 47.356 63.4461 47.815C61.7841 48.148 60.0651 48.492 58.7081 48.878C53.4821 50.367 41.8791 55.445 38.4471 56.966L38.3461 57.011C25.1451 63.103 23.7451 69.883 22.9931 73.525C22.8361 74.284 22.7011 74.939 22.5131 75.316C22.1041 76.138 21.5911 76.246 19.7451 76.316C18.8941 76.349 17.9291 76.385 16.9101 76.627C14.5071 77.19 13.7911 78.578 13.5791 79.355C13.2271 80.64 13.6971 82.02 14.8661 83.141C15.7391 83.984 17.1401 84.395 19.1471 84.395C20.0701 84.395 20.9441 84.305 21.5391 84.225C26.1621 88.514 49.5981 101.876 56.5111 104.551C56.4001 105.149 56.3881 105.85 56.6451 106.54C56.8921 107.2 57.4791 108.089 58.8771 108.573C60.0541 108.981 61.4071 109.207 62.6851 109.207C64.9991 109.207 66.7631 108.51 67.6531 107.244C68.2171 106.436 68.3051 105.64 68.3641 105.113C68.4281 104.538 68.4491 104.344 70.2721 104.041C76.4901 103.009 87.8801 98.828 99.5121 90.441C99.6251 90.359 110.749 82.051 113.742 78.547C114.763 77.352 116.398 77.172 118.291 76.963C119.149 76.869 120.036 76.771 120.907 76.567C123.313 76.005 124.032 74.62 124.246 73.845C124.6 72.562 124.135 71.181 122.969 70.055C122.085 69.208 120.684 68.798 118.681 68.798C117.781 68.798 116.927 68.884 116.335 68.962C116.271 68.9 116.203 68.834 116.129 68.766C111.899 64.977 88.7181 51.456 81.3191 48.632C81.4281 48.037 81.4391 47.339 81.1831 46.653C80.9371 45.994 80.3511 45.106 78.9571 44.622C77.7721 44.212 76.4181 43.987 75.1411 43.987Z" fill="#3F321E"/>
<path d="M65.3218 85.411C58.2578 85.411 51.6238 83.827 46.6418 80.951C41.7468 78.125 39.0508 74.396 39.0508 70.454C39.0508 66.512 41.7468 62.784 46.6418 59.957C51.6228 57.081 58.2568 55.497 65.3218 55.497C72.3848 55.497 79.0188 57.081 84.0008 59.957C88.8968 62.783 91.5928 66.511 91.5928 70.454C91.5928 74.397 88.8968 78.124 84.0008 80.951C79.0198 83.827 72.3858 85.411 65.3218 85.411Z" fill="white"/>
<path d="M65.3203 55.997C72.2983 55.997 78.8433 57.557 83.7493 60.39C88.4833 63.123 91.0903 66.697 91.0903 70.454C91.0903 74.211 88.4833 77.784 83.7493 80.518C78.8423 83.351 72.2983 84.911 65.3203 84.911C58.3423 84.911 51.7973 83.351 46.8913 80.518C42.1573 77.785 39.5503 74.211 39.5503 70.454C39.5503 66.697 42.1573 63.124 46.8913 60.39C51.7983 57.557 58.3423 55.997 65.3203 55.997ZM65.3203 54.997C58.4693 54.997 51.6183 56.506 46.3913 59.524C35.9373 65.56 35.9373 75.347 46.3913 81.383C51.6183 84.401 58.4693 85.91 65.3203 85.91C72.1713 85.91 79.0223 84.401 84.2493 81.383C94.7033 75.347 94.7033 65.56 84.2493 59.524C79.0223 56.506 72.1713 54.997 65.3203 54.997Z" fill="black"/>
<path d="M52.2657 64.073C50.7497 64.073 49.4747 63.699 49.0167 63.122C48.8567 62.92 48.8167 62.719 48.8927 62.491C49.0887 61.902 50.0867 61.096 51.8777 60.623C52.7157 60.401 53.6107 60.284 54.4697 60.284C55.9857 60.284 57.2607 60.658 57.7187 61.235C57.8607 61.413 57.9067 61.588 57.8647 61.782C57.7717 62.217 57.2517 62.719 56.4717 63.125C56.0047 63.369 55.4607 63.574 54.8567 63.733C54.0187 63.956 53.1237 64.073 52.2657 64.073Z" fill="white"/>
<path d="M54.4703 60.784C56.0173 60.784 57.0363 61.179 57.3273 61.546C57.3883 61.623 57.3823 61.651 57.3773 61.679C57.3403 61.851 57.0603 62.257 56.2423 62.683C55.8073 62.91 55.2993 63.101 54.7303 63.251C53.9343 63.462 53.0813 63.573 52.2663 63.573C50.7183 63.573 49.7003 63.178 49.4093 62.811C49.3423 62.726 49.3503 62.7 49.3683 62.648C49.4923 62.276 50.2963 61.558 52.0063 61.106C52.8023 60.896 53.6543 60.784 54.4703 60.784ZM54.4703 59.784C53.5973 59.784 52.6603 59.899 51.7503 60.139C49.1313 60.832 47.7313 62.306 48.6253 63.433C49.2083 64.168 50.6243 64.573 52.2653 64.573C53.1383 64.573 54.0753 64.458 54.9853 64.218C55.6403 64.045 56.2183 63.823 56.7043 63.57C58.1613 62.81 58.7803 61.77 58.1103 60.925C57.5273 60.189 56.1113 59.784 54.4703 59.784Z" fill="black"/>
<path d="M53.8516 73.276C52.3356 73.276 51.0606 72.903 50.6026 72.325C50.4426 72.122 50.4026 71.922 50.4786 71.693C50.6746 71.104 51.6726 70.298 53.4636 69.825C54.3016 69.603 55.1966 69.486 56.0556 69.486C57.5716 69.486 58.8466 69.86 59.3046 70.437C59.4466 70.615 59.4926 70.79 59.4506 70.984C59.3576 71.419 58.8376 71.922 58.0576 72.328C57.5896 72.572 57.0456 72.777 56.4426 72.936C55.6046 73.159 54.7096 73.276 53.8516 73.276Z" fill="white"/>
<path d="M56.0563 69.987C57.6033 69.987 58.6223 70.382 58.9133 70.749C58.9743 70.826 58.9683 70.854 58.9633 70.882C58.9263 71.054 58.6463 71.46 57.8283 71.886C57.3933 72.113 56.8853 72.304 56.3163 72.454C55.5203 72.665 54.6673 72.776 53.8523 72.776C52.3043 72.776 51.2863 72.381 50.9953 72.014C50.9283 71.929 50.9363 71.903 50.9543 71.851C51.0783 71.479 51.8823 70.761 53.5923 70.309C54.3883 70.099 55.2403 69.987 56.0563 69.987ZM56.0563 68.987C55.1833 68.987 54.2463 69.102 53.3363 69.342C50.7173 70.035 49.3173 71.509 50.2113 72.636C50.7943 73.371 52.2103 73.776 53.8513 73.776C54.7243 73.776 55.6613 73.661 56.5713 73.421C57.2263 73.248 57.8043 73.026 58.2903 72.773C59.7473 72.013 60.3663 70.973 59.6963 70.128C59.1133 69.392 57.6983 68.987 56.0563 68.987Z" fill="black"/>
<path d="M67.3409 64.49C65.8249 64.49 64.5489 64.116 64.0909 63.539C63.9309 63.337 63.8909 63.136 63.9669 62.908C64.1629 62.319 65.1609 61.513 66.9519 61.04C67.7899 60.818 68.6849 60.701 69.5439 60.701C71.0599 60.701 72.3349 61.075 72.7929 61.652C72.9349 61.83 72.9809 62.005 72.9389 62.199C72.8459 62.634 72.3259 63.136 71.5459 63.542C71.0789 63.786 70.5359 63.991 69.9309 64.151C69.0949 64.373 68.1979 64.49 67.3409 64.49Z" fill="white"/>
<path d="M69.5442 61.201C71.0922 61.201 72.1102 61.596 72.4012 61.963C72.4622 62.04 72.4562 62.068 72.4512 62.096C72.4142 62.268 72.1342 62.674 71.3162 63.1C70.8812 63.327 70.3722 63.518 69.8042 63.668C69.0082 63.879 68.1562 63.99 67.3402 63.99C65.7922 63.99 64.7742 63.595 64.4832 63.228C64.4162 63.143 64.4252 63.117 64.4422 63.065C64.5662 62.693 65.3702 61.975 67.0802 61.523C67.8762 61.312 68.7282 61.201 69.5442 61.201ZM69.5442 60.201C68.6712 60.201 67.7342 60.316 66.8242 60.556C64.2052 61.249 62.8062 62.723 63.6992 63.85C64.2822 64.585 65.6982 64.99 67.3402 64.99C68.2132 64.99 69.1502 64.875 70.0602 64.635C70.7152 64.462 71.2932 64.24 71.7792 63.987C73.2362 63.227 73.8552 62.187 73.1852 61.342C72.6012 60.606 71.1862 60.201 69.5442 60.201Z" fill="black"/>
<path d="M67.3381 76.921C65.8231 76.921 64.5481 76.547 64.0901 75.97C63.9301 75.768 63.8911 75.567 63.9671 75.338C64.1621 74.75 65.1611 73.944 66.9511 73.47C67.7891 73.249 68.6851 73.132 69.5441 73.132C71.0601 73.132 72.3351 73.505 72.7931 74.083C72.9351 74.262 72.9811 74.436 72.9391 74.63C72.8461 75.065 72.3261 75.568 71.5461 75.974C71.0751 76.219 70.5311 76.424 69.9301 76.582C69.0931 76.804 68.1961 76.921 67.3381 76.921Z" fill="white"/>
<path d="M69.5445 73.632C71.0915 73.632 72.1105 74.027 72.4015 74.394C72.4625 74.471 72.4565 74.499 72.4515 74.527C72.4145 74.699 72.1345 75.105 71.3165 75.531C70.8815 75.758 70.3735 75.949 69.8045 76.099C69.0085 76.31 68.1555 76.421 67.3405 76.421C65.7925 76.421 64.7745 76.026 64.4835 75.659C64.4165 75.574 64.4245 75.548 64.4425 75.496C64.5665 75.124 65.3705 74.406 67.0805 73.954C67.8765 73.743 68.7285 73.632 69.5445 73.632ZM69.5445 72.632C68.6715 72.632 67.7345 72.747 66.8245 72.987C64.2055 73.68 62.8055 75.154 63.6995 76.281C64.2825 77.016 65.6985 77.421 67.3395 77.421C68.2125 77.421 69.1495 77.306 70.0595 77.066C70.7145 76.893 71.2925 76.671 71.7785 76.418C73.2355 75.658 73.8545 74.618 73.1845 73.773C72.6015 73.037 71.1855 72.632 69.5445 72.632Z" fill="black"/>
<path d="M80.554 70.398C79.038 70.398 77.763 70.025 77.305 69.447C77.145 69.245 77.106 69.044 77.182 68.815C77.377 68.227 78.376 67.421 80.166 66.947C81.004 66.725 81.9 66.608 82.759 66.608C84.275 66.608 85.55 66.982 86.008 67.559C86.15 67.738 86.196 67.912 86.154 68.106C86.061 68.541 85.541 69.043 84.761 69.45C84.292 69.694 83.748 69.899 83.145 70.058C82.308 70.281 81.412 70.398 80.554 70.398Z" fill="white"/>
<path d="M82.76 67.109C84.308 67.109 85.326 67.504 85.617 67.871C85.678 67.948 85.672 67.976 85.667 68.004C85.63 68.176 85.35 68.582 84.532 69.008C84.097 69.235 83.589 69.426 83.02 69.576C82.224 69.787 81.372 69.898 80.556 69.898C79.008 69.898 77.99 69.503 77.699 69.136C77.632 69.051 77.64 69.025 77.658 68.973C77.782 68.601 78.586 67.883 80.296 67.431C81.091 67.22 81.944 67.109 82.76 67.109ZM82.759 66.109C81.886 66.109 80.949 66.224 80.039 66.464C77.42 67.157 76.021 68.631 76.914 69.758C77.497 70.493 78.913 70.898 80.554 70.898C81.427 70.898 82.364 70.783 83.274 70.543C83.929 70.37 84.507 70.148 84.993 69.895C86.45 69.135 87.069 68.095 86.399 67.25C85.817 66.514 84.401 66.109 82.759 66.109Z" fill="black"/>
<path d="M52.5284 82.147C51.0124 82.147 49.7364 81.774 49.2784 81.197C49.1184 80.995 49.0784 80.794 49.1544 80.565C49.3494 79.977 50.3484 79.171 52.1394 78.698C52.9774 78.476 53.8734 78.359 54.7324 78.359C56.2474 78.359 57.5224 78.732 57.9804 79.309C58.1224 79.488 58.1684 79.662 58.1264 79.857C58.0334 80.293 57.5134 80.795 56.7334 81.201C56.2644 81.445 55.7204 81.65 55.1184 81.809C54.2824 82.031 53.3864 82.147 52.5284 82.147Z" fill="white"/>
<path d="M54.733 78.859C56.28 78.859 57.299 79.254 57.59 79.621C57.651 79.698 57.645 79.726 57.64 79.754C57.603 79.926 57.323 80.332 56.505 80.758C56.07 80.985 55.562 81.176 54.993 81.326C54.197 81.537 53.344 81.648 52.529 81.648C50.981 81.648 49.963 81.253 49.672 80.886C49.605 80.801 49.613 80.775 49.631 80.723C49.755 80.351 50.559 79.633 52.269 79.181C53.065 78.971 53.917 78.859 54.733 78.859ZM54.732 77.859C53.859 77.859 52.922 77.974 52.012 78.214C49.393 78.907 47.993 80.381 48.887 81.508C49.47 82.243 50.886 82.648 52.527 82.648C53.4 82.648 54.337 82.533 55.247 82.293C55.902 82.12 56.48 81.898 56.966 81.645C58.423 80.885 59.042 79.845 58.372 79C57.79 78.264 56.374 77.859 54.732 77.859Z" fill="black"/>
<path d="M78.4326 82.215C76.9176 82.215 75.6426 81.842 75.1846 81.264C75.0246 81.062 74.9846 80.861 75.0606 80.632C75.2556 80.044 76.2546 79.238 78.0456 78.765C78.8836 78.543 79.7796 78.426 80.6386 78.426C82.1536 78.426 83.4286 78.8 83.8866 79.377C84.0286 79.556 84.0746 79.73 84.0326 79.925C83.9406 80.36 83.4196 80.862 82.6396 81.268C82.1736 81.511 81.6306 81.716 81.0246 81.876C80.1866 82.098 79.2906 82.215 78.4326 82.215Z" fill="white"/>
<path d="M80.6379 78.926C82.1859 78.926 83.2039 79.321 83.4949 79.688C83.5559 79.765 83.5499 79.793 83.5449 79.821C83.5079 79.993 83.2279 80.399 82.4099 80.825C81.9749 81.052 81.4669 81.243 80.8979 81.393C80.1019 81.604 79.2499 81.715 78.4339 81.715C76.8859 81.715 75.8679 81.32 75.5769 80.953C75.5099 80.868 75.5179 80.842 75.5359 80.79C75.6599 80.418 76.4639 79.7 78.1739 79.248C78.9699 79.037 79.8219 78.926 80.6379 78.926ZM80.6379 77.926C79.7649 77.926 78.8279 78.041 77.9179 78.281C75.2989 78.974 73.8999 80.448 74.7929 81.575C75.3759 82.31 76.7919 82.715 78.4329 82.715C79.3059 82.715 80.2429 82.6 81.1529 82.36C81.8079 82.187 82.3859 81.965 82.8719 81.712C84.3289 80.952 84.9479 79.912 84.2779 79.067C83.6949 78.331 82.2789 77.926 80.6379 77.926Z" fill="black"/>
<path d="M120.586 75.203C117.853 75.844 114.619 75.363 112.676 77.637C109.804 81 98.8095 89.219 98.6925 89.305C86.2565 98.272 74.8665 101.859 70.0415 102.659C65.8145 103.364 67.6185 104.847 66.5085 106.438C65.3985 108.018 61.9185 108.146 59.3355 107.249C56.7415 106.352 58.3005 103.652 58.3005 103.652C58.1725 103.631 58.0125 103.588 57.8415 103.535C59.2185 101.816 60.7455 100.194 62.1755 99.233C65.7625 96.842 81.0305 93.407 115.176 69.792C115.475 70.07 115.688 70.294 115.784 70.465C115.784 70.465 120.438 69.568 121.997 71.063C123.543 72.556 123.329 74.563 120.586 75.203Z" fill="#B77321"/>
<path d="M62.689 97.625C61.486 97.625 60.214 97.413 59.108 97.029C57.968 96.635 57.499 95.933 57.304 95.414C57.011 94.63 57.153 93.813 57.344 93.228C51.454 91.234 25.321 76.381 21.765 72.605C21.223 72.688 20.222 72.814 19.15 72.814C17.359 72.814 16.081 72.457 15.351 71.752C14.374 70.816 13.975 69.688 14.256 68.658C14.428 68.031 15.022 66.907 17.075 66.425C18.027 66.199 18.955 66.164 19.774 66.133C21.567 66.064 22.531 65.971 23.141 64.745C23.37 64.287 23.514 63.59 23.68 62.783C24.458 59.014 25.76 52.707 38.612 46.776L38.734 46.722C42.155 45.206 53.721 40.144 58.9 38.668C60.23 38.291 61.935 37.949 63.584 37.619C66.363 37.062 70.169 36.3 70.753 35.47C71.508 34.396 73.066 33.804 75.143 33.804C76.344 33.804 77.618 34.015 78.728 34.399C79.866 34.794 80.334 35.495 80.529 36.013C80.82 36.794 80.68 37.607 80.491 38.189C86.884 40.34 111.539 54.709 115.645 58.387C115.826 58.555 115.969 58.696 116.083 58.822C116.627 58.739 117.619 58.614 118.683 58.614C120.472 58.614 121.75 58.97 122.484 59.673C123.462 60.616 123.858 61.746 123.574 62.775C123.401 63.401 122.804 64.523 120.75 65.003C119.92 65.198 119.055 65.293 118.217 65.385C116.262 65.6 114.414 65.804 113.213 67.21C110.258 70.672 99.215 78.912 99.109 78.99C83.918 89.942 71.523 92.242 70.158 92.469C67.814 92.86 67.761 93.347 67.671 94.155C67.614 94.665 67.544 95.301 67.085 95.958C66.328 97.033 64.768 97.625 62.689 97.625Z" fill="url(#paint1_linear_1061_715)"/>
<path d="M75.1411 34.505C76.2611 34.505 77.4501 34.7 78.4971 35.062C81.0801 35.959 79.5321 38.649 79.5321 38.649C83.8981 39.492 110.575 54.789 115.175 58.91C115.474 59.188 115.687 59.412 115.784 59.583C115.784 59.583 117.169 59.316 118.68 59.316C119.94 59.316 121.288 59.501 121.996 60.181C123.544 61.676 123.33 63.682 120.587 64.323C117.854 64.964 114.62 64.483 112.677 66.757C109.805 70.12 98.8101 78.339 98.6931 78.425C86.2571 87.392 74.8671 90.979 70.0421 91.779C65.8151 92.484 67.6191 93.967 66.5091 95.558C65.8471 96.5 64.3421 96.926 62.6871 96.926C61.5671 96.926 60.3791 96.731 59.3361 96.369C56.7421 95.472 58.3011 92.772 58.3011 92.772C58.1731 92.751 58.0131 92.708 57.8421 92.655C51.9601 90.904 23.5541 74.465 22.0491 71.85C22.0491 71.85 20.6611 72.117 19.1481 72.117C17.8871 72.117 16.5401 71.932 15.8361 71.252C14.2771 69.758 14.5021 67.751 17.2341 67.11C19.9771 66.459 22.5501 67.505 23.7671 65.06C25.1551 62.274 23.3611 54.588 38.9041 47.414C39.0531 47.35 53.2831 40.998 59.0901 39.344C63.0401 38.223 70.2131 37.455 71.3231 35.875C71.9851 34.931 73.4871 34.505 75.1411 34.505ZM75.1411 33.105C72.8301 33.105 71.0671 33.802 70.1781 35.068C69.5751 35.705 65.7381 36.474 63.4461 36.933C61.7841 37.266 60.0651 37.61 58.7081 37.996C53.4821 39.485 41.8791 44.563 38.4471 46.084L38.3461 46.129C25.1451 52.221 23.7451 59.001 22.9931 62.643C22.8361 63.402 22.7011 64.057 22.5131 64.434C22.1041 65.256 21.5911 65.364 19.7451 65.434C18.8941 65.467 17.9291 65.503 16.9101 65.745C14.5071 66.308 13.7911 67.696 13.5791 68.473C13.2271 69.758 13.6971 71.138 14.8661 72.259C15.7391 73.102 17.1401 73.513 19.1471 73.513C20.0701 73.513 20.9441 73.423 21.5391 73.343C26.1621 77.632 49.5981 90.994 56.5111 93.669C56.4001 94.267 56.3881 94.968 56.6451 95.658C56.8921 96.318 57.4791 97.207 58.8771 97.69C60.0541 98.098 61.4071 98.324 62.6861 98.324C65.0001 98.324 66.7641 97.627 67.6541 96.361C68.2181 95.553 68.3061 94.757 68.3651 94.23C68.4291 93.655 68.4501 93.461 70.2731 93.158C76.4911 92.126 87.8811 87.945 99.5131 79.558C99.6261 79.476 110.75 71.168 113.743 67.664C114.764 66.469 116.399 66.289 118.292 66.08C119.15 65.986 120.037 65.888 120.908 65.684C123.314 65.122 124.033 63.737 124.247 62.962C124.601 61.679 124.136 60.298 122.97 59.172C122.086 58.325 120.685 57.915 118.681 57.915C117.781 57.915 116.928 58.001 116.335 58.079C116.271 58.017 116.203 57.951 116.129 57.883C111.899 54.094 88.7181 40.573 81.3191 37.749C81.4281 37.154 81.4391 36.456 81.1831 35.77C80.9371 35.111 80.3511 34.223 78.9571 33.739C77.7721 33.331 76.4181 33.105 75.1411 33.105Z" fill="#3F321E"/>
<path d="M65.3218 74.53C58.2578 74.53 51.6238 72.946 46.6418 70.07C41.7468 67.244 39.0508 63.516 39.0508 59.573C39.0508 55.631 41.7468 51.903 46.6418 49.076C51.6228 46.2 58.2568 44.616 65.3218 44.616C72.3848 44.616 79.0188 46.2 84.0008 49.076C88.8968 51.902 91.5928 55.63 91.5928 59.573C91.5928 63.516 88.8968 67.243 84.0008 70.07C79.0198 72.946 72.3858 74.53 65.3218 74.53Z" fill="url(#paint2_linear_1061_715)"/>
<path d="M65.3203 45.116C72.2983 45.116 78.8433 46.676 83.7493 49.509C88.4833 52.242 91.0903 55.816 91.0903 59.573C91.0903 63.33 88.4833 66.903 83.7493 69.637C78.8423 72.47 72.2983 74.03 65.3203 74.03C58.3423 74.03 51.7973 72.47 46.8913 69.637C42.1573 66.904 39.5503 63.33 39.5503 59.573C39.5503 55.816 42.1573 52.243 46.8913 49.509C51.7983 46.676 58.3423 45.116 65.3203 45.116ZM65.3203 44.116C58.4693 44.116 51.6183 45.625 46.3913 48.643C35.9373 54.679 35.9373 64.466 46.3913 70.502C51.6183 73.52 58.4693 75.029 65.3203 75.029C72.1713 75.029 79.0223 73.52 84.2493 70.502C94.7033 64.466 94.7033 54.679 84.2493 48.643C79.0223 45.625 72.1713 44.116 65.3203 44.116Z" fill="black"/>
<path d="M52.2657 53.192C50.7497 53.192 49.4747 52.818 49.0167 52.241C48.8567 52.038 48.8167 51.838 48.8927 51.61C49.0877 51.022 50.0867 50.215 51.8777 49.742C52.7147 49.52 53.6107 49.403 54.4697 49.403C55.9857 49.403 57.2607 49.777 57.7187 50.354C57.8607 50.533 57.9067 50.707 57.8647 50.902C57.7717 51.337 57.2517 51.839 56.4717 52.245C56.0047 52.489 55.4607 52.693 54.8567 52.853C54.0197 53.075 53.1237 53.192 52.2657 53.192Z" fill="url(#paint3_linear_1061_715)"/>
<path d="M54.4703 49.903C56.0173 49.903 57.0363 50.298 57.3273 50.665C57.3883 50.742 57.3823 50.77 57.3773 50.798C57.3403 50.97 57.0603 51.376 56.2423 51.802C55.8073 52.029 55.2993 52.22 54.7303 52.37C53.9343 52.581 53.0813 52.692 52.2663 52.692C50.7183 52.692 49.7003 52.297 49.4093 51.93C49.3423 51.845 49.3503 51.819 49.3683 51.767C49.4923 51.395 50.2963 50.677 52.0063 50.225C52.8023 50.014 53.6543 49.903 54.4703 49.903ZM54.4703 48.903C53.5973 48.903 52.6603 49.018 51.7503 49.258C49.1313 49.951 47.7313 51.425 48.6253 52.552C49.2083 53.287 50.6243 53.692 52.2653 53.692C53.1383 53.692 54.0753 53.577 54.9853 53.337C55.6403 53.164 56.2183 52.942 56.7043 52.689C58.1613 51.929 58.7803 50.889 58.1103 50.044C57.5273 49.308 56.1113 48.903 54.4703 48.903Z" fill="url(#paint4_linear_1061_715)"/>
<path d="M53.8516 62.396C52.3356 62.396 51.0606 62.022 50.6026 61.445C50.4426 61.242 50.4026 61.042 50.4786 60.814C50.6736 60.226 51.6726 59.419 53.4636 58.946C54.3006 58.724 55.1966 58.607 56.0556 58.607C57.5716 58.607 58.8466 58.981 59.3046 59.558C59.4466 59.737 59.4926 59.911 59.4506 60.106C59.3576 60.541 58.8376 61.043 58.0576 61.449C57.5916 61.693 57.0476 61.897 56.4426 62.057C55.6056 62.278 54.7096 62.396 53.8516 62.396Z" fill="url(#paint5_linear_1061_715)"/>
<path d="M56.0563 59.106C57.6033 59.106 58.6223 59.501 58.9133 59.868C58.9743 59.945 58.9683 59.973 58.9633 60.001C58.9263 60.173 58.6463 60.579 57.8283 61.005C57.3933 61.232 56.8853 61.423 56.3163 61.573C55.5203 61.784 54.6673 61.895 53.8523 61.895C52.3043 61.895 51.2863 61.5 50.9953 61.133C50.9283 61.048 50.9363 61.022 50.9543 60.97C51.0783 60.598 51.8823 59.88 53.5923 59.428C54.3883 59.218 55.2403 59.106 56.0563 59.106ZM56.0563 58.106C55.1833 58.106 54.2463 58.221 53.3363 58.461C50.7173 59.154 49.3173 60.628 50.2113 61.755C50.7943 62.49 52.2103 62.895 53.8513 62.895C54.7243 62.895 55.6613 62.78 56.5713 62.54C57.2263 62.367 57.8043 62.145 58.2903 61.892C59.7473 61.132 60.3663 60.092 59.6963 59.247C59.1133 58.511 57.6983 58.106 56.0563 58.106Z" fill="url(#paint6_linear_1061_715)"/>
<path d="M67.3438 53.609C65.8278 53.609 64.5528 53.235 64.0948 52.658C63.9348 52.455 63.8948 52.255 63.9708 52.027C64.1658 51.439 65.1648 50.632 66.9558 50.159C67.7928 49.937 68.6888 49.82 69.5478 49.82C71.0638 49.82 72.3388 50.194 72.7968 50.771C72.9388 50.95 72.9848 51.124 72.9428 51.319C72.8498 51.754 72.3298 52.256 71.5498 52.662C71.0828 52.906 70.5388 53.11 69.9348 53.27C69.0988 53.492 68.2018 53.609 67.3438 53.609Z" fill="url(#paint7_linear_1061_715)"/>
<path d="M69.5481 50.32C71.0951 50.32 72.1141 50.715 72.4051 51.082C72.4661 51.159 72.4601 51.187 72.4551 51.215C72.4181 51.387 72.1381 51.793 71.3201 52.219C70.8851 52.446 70.3761 52.637 69.8081 52.787C69.0121 52.998 68.1591 53.109 67.3441 53.109C65.7961 53.109 64.7781 52.714 64.4871 52.347C64.4201 52.262 64.4291 52.236 64.4461 52.184C64.5701 51.812 65.3741 51.094 67.0841 50.642C67.8801 50.431 68.7321 50.32 69.5481 50.32ZM69.5481 49.32C68.6751 49.32 67.7381 49.435 66.8281 49.675C64.2091 50.368 62.8101 51.842 63.7031 52.969C64.2861 53.704 65.7021 54.109 67.3431 54.109C68.2161 54.109 69.1531 53.994 70.0631 53.754C70.7181 53.581 71.2961 53.359 71.7821 53.106C73.2391 52.346 73.8581 51.306 73.1881 50.461C72.6051 49.725 71.1901 49.32 69.5481 49.32Z" fill="url(#paint8_linear_1061_715)"/>
<path d="M67.3401 66.04C65.8241 66.04 64.5481 65.666 64.0901 65.089C63.9301 64.887 63.8911 64.686 63.9671 64.457C64.1621 63.869 65.1611 63.063 66.9511 62.59C67.7891 62.368 68.6851 62.251 69.5441 62.251C71.0601 62.251 72.3351 62.625 72.7931 63.202C72.9351 63.38 72.9811 63.554 72.9391 63.749C72.8461 64.184 72.3261 64.686 71.5461 65.093C71.0771 65.337 70.5331 65.542 69.9301 65.702C69.0941 65.922 68.1971 66.04 67.3401 66.04Z" fill="url(#paint9_linear_1061_715)"/>
<path d="M69.5445 62.751C71.0915 62.751 72.1105 63.146 72.4015 63.513C72.4625 63.59 72.4565 63.618 72.4515 63.646C72.4145 63.818 72.1345 64.224 71.3165 64.65C70.8815 64.877 70.3735 65.068 69.8045 65.218C69.0085 65.429 68.1555 65.54 67.3405 65.54C65.7925 65.54 64.7745 65.145 64.4835 64.778C64.4165 64.693 64.4245 64.667 64.4425 64.615C64.5665 64.243 65.3705 63.525 67.0805 63.073C67.8765 62.862 68.7285 62.751 69.5445 62.751ZM69.5445 61.751C68.6715 61.751 67.7345 61.866 66.8245 62.106C64.2055 62.799 62.8055 64.273 63.6995 65.4C64.2825 66.135 65.6985 66.54 67.3395 66.54C68.2125 66.54 69.1495 66.425 70.0595 66.185C70.7145 66.012 71.2925 65.79 71.7785 65.537C73.2355 64.777 73.8545 63.737 73.1845 62.892C72.6015 62.156 71.1855 61.751 69.5445 61.751Z" fill="url(#paint10_linear_1061_715)"/>
<path d="M80.5579 59.517C79.0419 59.517 77.7669 59.143 77.3089 58.566C77.1489 58.364 77.1099 58.163 77.1859 57.934C77.3809 57.346 78.3799 56.54 80.1699 56.066C81.0079 55.845 81.9039 55.728 82.7629 55.728C84.2789 55.728 85.5539 56.101 86.0119 56.679C86.1539 56.858 86.1999 57.032 86.1579 57.226C86.0649 57.661 85.5449 58.163 84.7649 58.57C84.2959 58.815 83.7519 59.019 83.1489 59.178C82.3119 59.4 81.4159 59.517 80.5579 59.517Z" fill="url(#paint11_linear_1061_715)"/>
<path d="M82.7639 56.228C84.3109 56.228 85.3299 56.623 85.6209 56.99C85.6819 57.067 85.6759 57.095 85.6709 57.123C85.6339 57.295 85.3539 57.701 84.5359 58.127C84.1009 58.354 83.5929 58.545 83.0239 58.695C82.2279 58.906 81.3759 59.017 80.5599 59.017C79.0119 59.017 77.9939 58.622 77.7029 58.255C77.6359 58.17 77.6439 58.144 77.6619 58.092C77.7859 57.72 78.5899 57.002 80.2999 56.55C81.0949 56.339 81.9479 56.228 82.7639 56.228ZM82.7629 55.228C81.8899 55.228 80.9529 55.343 80.0429 55.583C77.4239 56.276 76.0249 57.75 76.9179 58.877C77.5009 59.612 78.9169 60.017 80.5579 60.017C81.4309 60.017 82.3679 59.902 83.2779 59.662C83.9329 59.489 84.5109 59.267 84.9969 59.014C86.4539 58.254 87.0729 57.214 86.4029 56.369C85.8209 55.633 84.4049 55.228 82.7629 55.228Z" fill="url(#paint12_linear_1061_715)"/>
<path d="M52.5313 71.267C51.0153 71.267 49.7403 70.893 49.2823 70.316C49.1223 70.114 49.0823 69.913 49.1583 69.685C49.3533 69.097 50.3523 68.29 52.1433 67.817C52.9803 67.596 53.8763 67.479 54.7343 67.479C56.2503 67.479 57.5263 67.853 57.9843 68.43C58.1263 68.608 58.1723 68.783 58.1303 68.977C58.0373 69.412 57.5173 69.914 56.7373 70.32C56.2703 70.564 55.7263 70.769 55.1223 70.928C54.2853 71.15 53.3903 71.267 52.5313 71.267Z" fill="url(#paint13_linear_1061_715)"/>
<path d="M54.737 67.978C56.284 67.978 57.3029 68.373 57.5939 68.74C57.6549 68.817 57.649 68.845 57.644 68.873C57.607 69.045 57.327 69.451 56.5089 69.877C56.0739 70.104 55.5659 70.295 54.9969 70.445C54.2009 70.656 53.348 70.767 52.533 70.767C50.985 70.767 49.9669 70.372 49.6759 70.005C49.6089 69.92 49.6169 69.894 49.6349 69.842C49.7589 69.47 50.5629 68.752 52.2729 68.3C53.0689 68.089 53.921 67.978 54.737 67.978ZM54.736 66.978C53.863 66.978 52.9259 67.093 52.0159 67.333C49.3969 68.026 47.9969 69.5 48.8909 70.627C49.4739 71.362 50.8899 71.767 52.5309 71.767C53.4039 71.767 54.341 71.652 55.251 71.412C55.906 71.239 56.484 71.017 56.97 70.764C58.427 70.004 59.0459 68.964 58.3759 68.119C57.794 67.383 56.378 66.978 54.736 66.978Z" fill="url(#paint14_linear_1061_715)"/>
<path d="M78.4326 71.334C76.9176 71.334 75.6426 70.96 75.1846 70.383C75.0246 70.18 74.9846 69.98 75.0606 69.752C75.2556 69.164 76.2546 68.357 78.0456 67.884C78.8826 67.662 79.7786 67.545 80.6376 67.545C82.1536 67.545 83.4286 67.919 83.8866 68.496C84.0286 68.675 84.0746 68.849 84.0326 69.044C83.9396 69.479 83.4196 69.981 82.6396 70.387C82.1746 70.63 81.6306 70.835 81.0246 70.995C80.1866 71.217 79.2906 71.334 78.4326 71.334Z" fill="url(#paint15_linear_1061_715)"/>
<path d="M80.6379 68.045C82.1859 68.045 83.2039 68.44 83.4949 68.807C83.5559 68.884 83.5499 68.912 83.5449 68.94C83.5079 69.112 83.2279 69.518 82.4099 69.944C81.9749 70.171 81.4669 70.362 80.8979 70.512C80.1019 70.723 79.2499 70.834 78.4339 70.834C76.8859 70.834 75.8679 70.439 75.5769 70.072C75.5099 69.987 75.5179 69.961 75.5359 69.909C75.6599 69.537 76.4639 68.819 78.1739 68.367C78.9699 68.156 79.8219 68.045 80.6379 68.045ZM80.6379 67.045C79.7649 67.045 78.8279 67.16 77.9179 67.4C75.2989 68.093 73.8999 69.567 74.7929 70.694C75.3759 71.429 76.7919 71.834 78.4329 71.834C79.3059 71.834 80.2429 71.719 81.1529 71.479C81.8079 71.306 82.3859 71.084 82.8719 70.831C84.3289 70.071 84.9479 69.031 84.2779 68.186C83.6949 67.45 82.2789 67.045 80.6379 67.045Z" fill="url(#paint16_linear_1061_715)"/>
<path d="M120.586 64.322C117.853 64.963 114.619 64.482 112.676 66.756C109.804 70.119 98.8095 78.338 98.6925 78.424C86.2565 87.391 74.8665 90.978 70.0415 91.778C65.8145 92.483 67.6185 93.966 66.5085 95.557C65.3985 97.137 61.9185 97.265 59.3355 96.368C56.7415 95.471 58.3005 92.771 58.3005 92.771C58.1725 92.75 58.0125 92.707 57.8415 92.654C59.2185 90.935 60.7455 89.313 62.1755 88.352C65.7625 85.961 81.0305 82.526 115.176 58.911C115.475 59.189 115.688 59.413 115.784 59.584C115.784 59.584 120.438 58.687 121.997 60.182C123.543 61.675 123.329 63.682 120.586 64.322Z" fill="#DDA572"/>
<path d="M56.6705 89.071L49.2015 84.759C45.4895 82.616 42.4805 76.867 42.4805 71.918V60.253C42.4805 58.894 43.3065 58.27 44.3255 58.858L61.5455 68.8C62.5645 69.388 63.3905 70.967 63.3905 72.325V83.99C63.3905 88.939 60.3815 91.214 56.6705 89.071Z" fill="#333333" stroke="#333333" stroke-miterlimit="10"/>
<path d="M55.065 89.713L47.596 85.401C43.884 83.258 40.875 77.509 40.875 72.56V60.895C40.875 59.536 41.701 58.912 42.72 59.5L59.94 69.442C60.959 70.03 61.785 71.609 61.785 72.967V84.632C61.786 89.581 58.777 91.856 55.065 89.713Z" fill="#DDDDDD"/>
<path d="M57.737 91.019C56.814 91.019 55.821 90.727 54.815 90.146L47.346 85.834C43.502 83.616 40.375 77.661 40.375 72.561V60.895C40.375 59.998 40.698 59.296 41.263 58.97C41.759 58.684 42.364 58.718 42.97 59.067L60.191 69.009C61.366 69.688 62.286 71.426 62.286 72.967V84.631C62.286 87.416 61.348 89.555 59.713 90.499C59.113 90.847 58.446 91.019 57.737 91.019ZM55.315 89.28C56.768 90.119 58.153 90.247 59.212 89.634C60.529 88.873 61.285 87.05 61.285 84.632V72.968C61.285 71.791 60.555 70.375 59.69 69.876L42.469 59.934C42.306 59.839 41.998 59.701 41.762 59.836C41.519 59.976 41.374 60.372 41.374 60.895V72.56C41.374 77.342 44.276 82.909 47.845 84.968L55.315 89.28Z" fill="#333333"/>
<path d="M50.2106 121.104C49.3426 120.603 48.8086 119.677 48.8086 118.675V90.064L54.4176 93.302V118.675C54.4176 120.834 52.0806 122.184 50.2106 121.104Z" fill="black"/>
<path d="M54.4176 95.182L48.8086 91.944V81.933C48.8086 80.717 49.5476 80.159 50.4596 80.685L52.7666 82.017C53.6786 82.543 54.4176 83.956 54.4176 85.171V95.182Z" fill="#333300"/>
<path d="M85.1535 140.66C84.3986 140.66 83.6555 140.46 83.0055 140.081L60.8525 127.028C59.7995 126.423 59.0455 125.388 58.7905 124.195C58.5345 123 58.8005 121.747 59.5175 120.756L75.8625 96.402C76.6935 95.274 77.9946 94.616 79.3596 94.616C79.4466 94.616 84.1916 94.746 84.1916 94.746L89.6605 94.882C91.2785 94.987 92.6795 95.958 93.3425 97.416L108.178 123.138C109.11 125.192 108.368 127.543 106.487 128.668L87.3625 140.052C86.6905 140.45 85.9285 140.66 85.1535 140.66Z" fill="url(#paint17_linear_1061_715)"/>
<path d="M79.3588 95.316C79.4318 95.316 79.5048 95.318 79.5778 95.323L84.1708 95.446L89.6408 95.582C90.9748 95.668 92.1478 96.483 92.7028 97.706L107.569 123.487C108.322 125.154 107.692 127.129 106.124 128.068L87.3688 139.23L86.9988 139.452C86.4288 139.79 85.7898 139.96 85.1508 139.96C84.5298 139.96 83.9098 139.799 83.3558 139.477L75.1568 134.649L66.7118 129.673L61.2048 126.426C59.3408 125.352 58.8218 122.907 60.0808 121.166L76.4408 96.793C77.1268 95.863 78.2058 95.316 79.3588 95.316ZM79.3588 93.916C77.7708 93.916 76.2598 94.68 75.3148 95.961C75.3028 95.978 75.2908 95.995 75.2788 96.012L58.9188 120.385C58.1138 121.497 57.8058 122.953 58.1038 124.342C58.4008 125.728 59.2758 126.93 60.5068 127.639L66.0018 130.879L74.4478 135.855L82.6468 140.683C83.4088 141.127 84.2728 141.36 85.1518 141.36C86.0518 141.36 86.9378 141.117 87.7138 140.656L88.0898 140.43L106.841 129.271C109.031 127.96 109.892 125.227 108.846 122.911C108.827 122.869 108.806 122.828 108.783 122.788L93.9468 97.061C93.1648 95.403 91.5558 94.304 89.7308 94.186C89.7118 94.185 89.6938 94.184 89.6748 94.183L84.2048 94.047L79.6148 93.924C79.5608 93.919 79.4598 93.916 79.3588 93.916Z" fill="#3F321E"/>
<path d="M106.126 128.068L87.3699 139.23L84.1719 95.447L89.6419 95.583C90.9759 95.669 92.1489 96.484 92.7039 97.707L107.57 123.488C108.324 125.154 107.694 127.129 106.126 128.068Z" fill="url(#paint18_linear_1061_715)"/>
<path d="M81.9676 103.486L77.8796 107.112L77.8256 107.194L77.7716 107.049L73.6836 98.704L81.9676 103.486Z" fill="#CC9933"/>
<path d="M82.6622 104.473C72.3912 104.473 64.0352 96.123 64.0352 85.86C64.0352 84.328 64.2162 82.836 64.5712 81.425C66.6102 73.071 74.0502 67.233 82.6622 67.233C92.9262 67.233 101.275 75.589 101.275 85.859C101.275 88.728 100.642 91.47 99.3941 94.008C96.2542 100.462 89.8422 104.473 82.6622 104.473Z" fill="url(#paint19_linear_1061_715)"/>
<path d="M82.6629 67.933C92.5629 67.933 100.576 75.959 100.576 85.859C100.576 88.671 99.9289 91.337 98.7669 93.7C95.8629 99.667 89.7509 103.772 82.6619 103.772C72.7619 103.772 64.7359 95.759 64.7359 85.859C64.7359 84.394 64.9079 82.955 65.2509 81.595C67.1649 73.755 74.2269 67.933 82.6629 67.933ZM82.6629 66.533C73.7279 66.533 66.0089 72.59 63.8909 81.264C63.5239 82.719 63.3359 84.268 63.3359 85.86C63.3359 96.509 72.0059 105.173 82.6619 105.173C90.1119 105.173 96.7649 101.012 100.026 94.314C101.319 91.684 101.976 88.838 101.976 85.86C101.976 75.203 93.3119 66.533 82.6629 66.533Z" fill="#3F321E"/>
<path d="M100.575 85.857C100.575 88.669 99.9305 91.341 98.7655 93.703C95.8685 99.669 89.7545 103.77 82.6625 103.77C81.4045 103.77 80.1685 103.638 78.9805 103.389C79.0895 103.397 79.1905 103.397 79.2985 103.397C86.3825 103.397 89.7695 101.895 92.6745 95.929C93.8395 93.56 94.4845 90.895 94.4845 88.083C94.4845 79.461 91.1295 69.66 83.0195 67.944C92.7605 68.13 100.575 76.077 100.575 85.857Z" fill="#CC9933"/>
<path d="M89.3684 58.016C88.1864 56.194 85.6614 55.851 84.0364 57.292L63.2154 75.756C61.7274 77.949 62.3974 80.942 64.6784 82.291L69.9304 85.397C79.6554 91.148 91.7004 91.311 101.577 85.824C103.763 84.609 104.576 81.869 103.407 79.659L89.3684 58.016Z" fill="#FF9933"/>
<path d="M86.1323 90.81C80.3393 90.81 74.5493 89.289 69.4233 86.257L64.1713 83.152C62.8283 82.358 61.9013 81.083 61.5603 79.56C61.2193 78.038 61.5133 76.487 62.3893 75.195L62.5543 75.008L83.3753 56.544C84.3663 55.664 85.6813 55.259 87.0053 55.44C88.3193 55.619 89.4873 56.359 90.2093 57.472L104.247 79.115C105.706 81.862 104.706 85.23 102.063 86.698C97.1263 89.441 91.6273 90.81 86.1323 90.81ZM63.9793 76.416C63.4663 77.226 63.3003 78.183 63.5113 79.122C63.7303 80.101 64.3253 80.92 65.1883 81.431L70.4403 84.536C79.8213 90.083 91.5653 90.242 101.092 84.949C102.789 84.006 103.432 81.842 102.524 80.126L88.5313 58.56C88.1273 57.936 87.4723 57.521 86.7353 57.421C86.0033 57.32 85.2573 57.546 84.7013 58.04L63.9793 76.416Z" fill="#3F321E"/>
<path d="M85.4602 80.729C80.5842 80.729 75.7722 79.587 71.3692 77.367C70.7652 77.056 70.1682 76.734 69.5702 76.379L66.2542 74.423C65.7782 74.143 65.6202 73.529 65.9002 73.054C66.1802 72.577 66.7942 72.419 67.2692 72.7L70.5882 74.658C71.1532 74.994 71.7152 75.297 72.2762 75.585C77.3642 78.151 83.0432 79.18 88.6992 78.55C92.2992 78.152 95.7722 77.087 99.0252 75.386C99.5152 75.127 100.119 75.319 100.375 75.808C100.631 76.297 100.442 76.902 99.9532 77.158C96.4782 78.975 92.7662 80.113 88.9202 80.539C87.7662 80.665 86.6112 80.729 85.4602 80.729Z" fill="#CC6600"/>
<path d="M86.039 70.044C83.207 70.044 80.411 69.381 77.853 68.091C77.5 67.91 77.154 67.722 76.806 67.516L74.926 66.407C74.45 66.127 74.292 65.513 74.572 65.038C74.852 64.562 75.467 64.402 75.941 64.684L77.824 65.794C78.137 65.98 78.447 66.148 78.759 66.307C81.569 67.724 84.706 68.288 87.828 67.944C89.816 67.724 91.734 67.135 93.531 66.195C94.022 65.94 94.625 66.129 94.881 66.618C95.137 67.107 94.948 67.711 94.459 67.968C92.44 69.024 90.284 69.684 88.049 69.932C87.379 70.007 86.708 70.044 86.039 70.044Z" fill="#CC6600"/>
<path d="M88.8072 88.169C88.2902 88.169 87.8532 87.773 87.8112 87.249L85.3782 56.852C85.3342 56.302 85.7452 55.82 86.2952 55.776C86.8572 55.726 87.3282 56.143 87.3722 56.693L89.8052 87.089C89.8492 87.64 89.4382 88.122 88.8882 88.166C88.8602 88.168 88.8332 88.169 88.8072 88.169Z" fill="#CC6600"/>
<path d="M73.0453 85.519C72.8983 85.519 72.7473 85.487 72.6063 85.416C72.1103 85.173 71.9063 84.574 72.1493 84.078L85.8543 56.144C86.0983 55.65 86.6963 55.444 87.1923 55.686C87.6883 55.93 87.8923 56.529 87.6493 57.024L73.9433 84.959C73.7703 85.313 73.4153 85.519 73.0453 85.519Z" fill="#CC6600"/>
<path d="M103.527 81.737C103.527 83.314 102.689 84.842 101.218 85.659C91.5911 91.009 79.8531 90.846 70.3751 85.24L65.2521 82.213C63.2771 81.048 62.5451 78.625 63.4191 76.6C63.7811 77.438 64.3991 78.177 65.2521 78.682L70.3751 81.709C79.8531 87.315 91.5901 87.471 101.218 82.121C102.12 81.624 102.781 80.856 103.158 79.982C103.406 80.55 103.527 81.147 103.527 81.737Z" fill="url(#paint20_linear_1061_715)"/>
<path d="M121.119 115.599C120.589 115.599 120.068 115.46 119.612 115.198L105.422 106.836C104.688 106.42 104.157 105.698 103.978 104.861C103.797 104.022 103.984 103.145 104.489 102.454L114.952 86.866C115.543 86.071 116.449 85.613 117.394 85.613C117.459 85.613 124.005 85.778 124.005 85.778C125.153 85.863 126.129 86.543 126.585 87.553L136.073 104.008C136.735 105.47 136.216 107.112 134.896 107.889L122.652 115.182C122.257 115.407 121.83 115.544 121.404 115.585C121.307 115.595 121.213 115.599 121.119 115.599Z" fill="url(#paint21_linear_1061_715)"/>
<path d="M117.393 86.312C117.444 86.312 117.495 86.314 117.546 86.317L120.922 86.402L123.989 86.477C124.841 86.541 125.597 87.063 125.948 87.84L135.468 104.357C135.947 105.422 135.553 106.689 134.541 107.285L122.295 114.58C121.997 114.75 121.667 114.857 121.337 114.889C121.265 114.896 121.193 114.899 121.121 114.899C120.723 114.899 120.324 114.798 119.963 114.591L105.779 106.232C104.576 105.551 104.246 103.974 105.055 102.867L115.534 87.256C115.971 86.667 116.661 86.312 117.393 86.312ZM117.393 84.912C116.229 84.912 115.114 85.475 114.411 86.417C114.397 86.436 114.384 86.454 114.371 86.474L103.906 102.065C103.297 102.914 103.074 103.984 103.294 105.007C103.516 106.039 104.17 106.929 105.088 107.449L119.252 115.796C119.828 116.127 120.469 116.298 121.121 116.298C121.235 116.298 121.35 116.293 121.463 116.282C121.996 116.231 122.521 116.062 122.989 115.795L135.257 108.488C136.879 107.532 137.52 105.508 136.744 103.782C136.725 103.739 136.704 103.698 136.68 103.657L127.19 87.193C126.615 85.988 125.435 85.181 124.092 85.08C124.068 85.078 124.045 85.077 124.021 85.076L120.954 85.001L117.606 84.917C117.536 84.915 117.464 84.912 117.393 84.912Z" fill="#3F321E"/>
<path d="M134.541 107.285L122.295 114.58C121.997 114.75 121.667 114.857 121.337 114.889C121.241 107.797 121.028 93.378 120.922 86.403L123.989 86.478C124.841 86.542 125.597 87.064 125.948 87.841L135.468 104.358C135.946 105.422 135.552 106.689 134.541 107.285Z" fill="url(#paint22_linear_1061_715)"/>
<path d="M120.313 92.587C113.597 92.587 108.133 87.123 108.133 80.407C108.133 74.129 113.036 68.804 119.297 68.283C119.628 68.25 119.97 68.238 120.313 68.238C127.029 68.238 132.493 73.697 132.493 80.407C132.493 86.079 128.5 91.06 122.986 92.286C122.954 92.299 122.922 92.308 122.888 92.316C122.056 92.496 121.189 92.587 120.313 92.587Z" fill="url(#paint23_linear_1061_715)"/>
<path d="M120.314 68.938C126.65 68.938 131.794 74.071 131.794 80.407C131.794 85.913 127.918 90.513 122.753 91.62C122.742 91.631 122.742 91.631 122.742 91.631C121.954 91.801 121.145 91.887 120.314 91.887C113.978 91.887 108.834 86.754 108.834 80.407C108.834 74.39 113.466 69.471 119.355 68.981C119.675 68.949 119.994 68.938 120.314 68.938ZM120.314 67.538C119.909 67.538 119.55 67.554 119.216 67.587C112.62 68.136 107.434 73.767 107.434 80.406C107.434 87.508 113.212 93.286 120.314 93.286C121.24 93.286 122.156 93.189 123.038 92.999C123.089 92.988 123.14 92.974 123.189 92.957C128.995 91.642 133.194 86.387 133.194 80.406C133.193 73.311 127.415 67.538 120.314 67.538Z" fill="#3F321E"/>
<path d="M131.798 80.408C131.798 85.828 128.048 90.368 122.998 91.558C127.038 89.798 124.728 69.578 118.388 69.578C118.068 69.578 117.748 69.588 117.428 69.628C116.848 69.678 116.288 69.768 115.738 69.898C116.858 69.398 118.078 69.088 119.358 68.978C119.678 68.948 119.998 68.938 120.318 68.938C126.648 68.938 131.798 74.068 131.798 80.408Z" fill="#CC9933"/>
<path d="M133.911 75.86C133.911 76.904 133.357 77.915 132.378 78.458C129.95 79.8 127.33 80.62 124.657 80.918C120.728 81.355 116.713 80.652 113.103 78.831C112.709 78.629 112.315 78.416 111.921 78.181L108.524 76.179C107.054 75.306 106.618 73.368 107.576 71.951L109.663 70.098L121.036 60.013C121.654 59.47 122.463 59.321 123.176 59.523C123.208 59.534 123.24 59.544 123.272 59.555C123.751 59.704 124.188 60.024 124.486 60.481L131.919 71.939L133.559 74.473C133.794 74.923 133.911 75.392 133.911 75.86Z" fill="#FF9933"/>
<path d="M122.381 81.545C119.092 81.545 115.848 80.775 112.879 79.277C112.473 79.069 112.07 78.851 111.667 78.611L108.271 76.61C107.45 76.123 106.861 75.308 106.652 74.376C106.441 73.431 106.622 72.471 107.163 71.671L107.245 71.577L120.706 59.639C121.427 59.005 122.402 58.782 123.314 59.042L123.422 59.077C124.026 59.265 124.553 59.667 124.906 60.208L133.979 74.203C134.273 74.76 134.411 75.304 134.411 75.859C134.411 77.12 133.724 78.283 132.62 78.895C130.159 80.255 127.498 81.103 124.713 81.415C123.936 81.502 123.156 81.545 122.381 81.545ZM107.958 72.283C107.6 72.842 107.482 73.505 107.628 74.158C107.779 74.832 108.189 75.398 108.78 75.75L112.176 77.751C112.563 77.98 112.947 78.189 113.332 78.386C116.826 80.149 120.728 80.854 124.603 80.422C127.257 80.125 129.792 79.318 132.137 78.022C132.923 77.586 133.412 76.758 133.412 75.861C133.412 75.469 133.313 75.082 133.117 74.709L124.068 60.756C123.842 60.41 123.507 60.153 123.126 60.035C122.458 59.84 121.832 59.984 121.368 60.391L107.958 72.283Z" fill="black"/>
<path d="M122.379 74.793C119.091 74.793 115.847 74.023 112.878 72.526C112.472 72.317 112.069 72.099 111.666 71.859L109.41 70.529L109.918 69.668L112.175 71C112.562 71.23 112.946 71.438 113.332 71.636C116.823 73.398 120.723 74.105 124.602 73.671C127.074 73.398 129.457 72.667 131.689 71.5L132.152 72.386C129.81 73.612 127.307 74.379 124.713 74.666C123.935 74.75 123.155 74.793 122.379 74.793Z" fill="#CC6600"/>
<path d="M122.773 67.5281C120.875 67.5281 119.002 67.0841 117.287 66.2191C117.052 66.0981 116.818 65.9721 116.587 65.8331L115.309 65.0801L115.817 64.2191L117.097 64.9741C117.313 65.1021 117.527 65.2191 117.742 65.3281C119.684 66.3071 121.855 66.7001 124.011 66.4591C125.385 66.3071 126.711 65.9001 127.954 65.2511L128.417 66.1371C127.064 66.8451 125.619 67.2871 124.121 67.4531C123.671 67.5031 123.222 67.5281 122.773 67.5281Z" fill="#CC6600"/>
<path d="M124.61 80.922C122.971 73.923 122.544 66.689 123.225 59.56L123.325 59.554C123.717 64.875 124.412 75.59 124.709 80.916L124.61 80.922Z" fill="#CC6600"/>
<path d="M123.226 59.548C120.938 66.491 117.492 73.005 113.152 78.855L113.062 78.809C115.532 73.976 120.585 64.291 123.137 59.502L123.226 59.548Z" fill="#CC6600"/>
</g>
<defs>
<linearGradient id="paint0_linear_1061_715" x1="14.1678" y1="76.5962" x2="123.663" y2="76.5962" gradientUnits="userSpaceOnUse">
<stop offset="0.0024" stop-color="#FFF800"/>
<stop offset="0.2172" stop-color="#FFEB00"/>
<stop offset="0.7054" stop-color="#FFD100"/>
<stop offset="1" stop-color="#FFC800"/>
</linearGradient>
<linearGradient id="paint1_linear_1061_715" x1="14.1678" y1="65.7153" x2="123.663" y2="65.7153" gradientUnits="userSpaceOnUse">
<stop offset="0.0916" stop-color="#FFDDBE"/>
<stop offset="0.443" stop-color="#FDDBBC"/>
<stop offset="0.612" stop-color="#F7D4B4"/>
<stop offset="0.742" stop-color="#ECC8A7"/>
<stop offset="0.8521" stop-color="#DDB795"/>
<stop offset="0.9487" stop-color="#CAA27D"/>
<stop offset="1" stop-color="#BD936D"/>
</linearGradient>
<linearGradient id="paint2_linear_1061_715" x1="39.0516" y1="59.5728" x2="91.5926" y2="59.5728" gradientUnits="userSpaceOnUse">
<stop offset="0.0799" stop-color="#009533"/>
<stop offset="1" stop-color="#43AC4A"/>
</linearGradient>
<linearGradient id="paint3_linear_1061_715" x1="48.8549" y1="51.2976" x2="57.8797" y2="51.2976" gradientUnits="userSpaceOnUse">
<stop offset="0.0024" stop-color="#FFF800"/>
<stop offset="0.2172" stop-color="#FFEB00"/>
<stop offset="0.7054" stop-color="#FFD100"/>
<stop offset="1" stop-color="#FFC800"/>
</linearGradient>
<linearGradient id="paint4_linear_1061_715" x1="48.3555" y1="51.2975" x2="58.3803" y2="51.2975" gradientUnits="userSpaceOnUse">
<stop offset="0.0024" stop-color="#FFF800"/>
<stop offset="0.2172" stop-color="#FFEB00"/>
<stop offset="0.7054" stop-color="#FFD100"/>
<stop offset="1" stop-color="#FFC800"/>
</linearGradient>
<linearGradient id="paint5_linear_1061_715" x1="50.4408" y1="60.5007" x2="59.4656" y2="60.5007" gradientUnits="userSpaceOnUse">
<stop offset="0.0024" stop-color="#FFF800"/>
<stop offset="0.2172" stop-color="#FFEB00"/>
<stop offset="0.7054" stop-color="#FFD100"/>
<stop offset="1" stop-color="#FFC800"/>
</linearGradient>
<linearGradient id="paint6_linear_1061_715" x1="49.9417" y1="60.5008" x2="59.9665" y2="60.5008" gradientUnits="userSpaceOnUse">
<stop offset="0.0024" stop-color="#FFF800"/>
<stop offset="0.2172" stop-color="#FFEB00"/>
<stop offset="0.7054" stop-color="#FFD100"/>
<stop offset="1" stop-color="#FFC800"/>
</linearGradient>
<linearGradient id="paint7_linear_1061_715" x1="63.9332" y1="51.7141" x2="72.958" y2="51.7141" gradientUnits="userSpaceOnUse">
<stop offset="0.0024" stop-color="#FFF800"/>
<stop offset="0.2172" stop-color="#FFEB00"/>
<stop offset="0.7054" stop-color="#FFD100"/>
<stop offset="1" stop-color="#FFC800"/>
</linearGradient>
<linearGradient id="paint8_linear_1061_715" x1="63.4334" y1="51.7141" x2="73.4582" y2="51.7141" gradientUnits="userSpaceOnUse">
<stop offset="0.0024" stop-color="#FFF800"/>
<stop offset="0.2172" stop-color="#FFEB00"/>
<stop offset="0.7054" stop-color="#FFD100"/>
<stop offset="1" stop-color="#FFC800"/>
</linearGradient>
<linearGradient id="paint9_linear_1061_715" x1="63.9293" y1="64.145" x2="72.9543" y2="64.145" gradientUnits="userSpaceOnUse">
<stop offset="0.0024" stop-color="#FFF800"/>
<stop offset="0.2172" stop-color="#FFEB00"/>
<stop offset="0.7054" stop-color="#FFD100"/>
<stop offset="1" stop-color="#FFC800"/>
</linearGradient>
<linearGradient id="paint10_linear_1061_715" x1="63.4294" y1="64.1451" x2="73.4542" y2="64.1451" gradientUnits="userSpaceOnUse">
<stop offset="0.0024" stop-color="#FFF800"/>
<stop offset="0.2172" stop-color="#FFEB00"/>
<stop offset="0.7054" stop-color="#FFD100"/>
<stop offset="1" stop-color="#FFC800"/>
</linearGradient>
<linearGradient id="paint11_linear_1061_715" x1="77.1479" y1="57.6226" x2="86.1729" y2="57.6226" gradientUnits="userSpaceOnUse">
<stop offset="0.0024" stop-color="#FFF800"/>
<stop offset="0.2172" stop-color="#FFEB00"/>
<stop offset="0.7054" stop-color="#FFD100"/>
<stop offset="1" stop-color="#FFC800"/>
</linearGradient>
<linearGradient id="paint12_linear_1061_715" x1="76.6486" y1="57.6224" x2="86.6734" y2="57.6224" gradientUnits="userSpaceOnUse">
<stop offset="0.0024" stop-color="#FFF800"/>
<stop offset="0.2172" stop-color="#FFEB00"/>
<stop offset="0.7054" stop-color="#FFD100"/>
<stop offset="1" stop-color="#FFC800"/>
</linearGradient>
<linearGradient id="paint13_linear_1061_715" x1="49.1212" y1="69.3726" x2="58.146" y2="69.3726" gradientUnits="userSpaceOnUse">
<stop offset="0.0024" stop-color="#FFF800"/>
<stop offset="0.2172" stop-color="#FFEB00"/>
<stop offset="0.7054" stop-color="#FFD100"/>
<stop offset="1" stop-color="#FFC800"/>
</linearGradient>
<linearGradient id="paint14_linear_1061_715" x1="48.6217" y1="69.3725" x2="58.6466" y2="69.3725" gradientUnits="userSpaceOnUse">
<stop offset="0.0024" stop-color="#FFF800"/>
<stop offset="0.2172" stop-color="#FFEB00"/>
<stop offset="0.7054" stop-color="#FFD100"/>
<stop offset="1" stop-color="#FFC800"/>
</linearGradient>
<linearGradient id="paint15_linear_1061_715" x1="75.0228" y1="69.4392" x2="84.0476" y2="69.4392" gradientUnits="userSpaceOnUse">
<stop offset="0.0024" stop-color="#FFF800"/>
<stop offset="0.2172" stop-color="#FFEB00"/>
<stop offset="0.7054" stop-color="#FFD100"/>
<stop offset="1" stop-color="#FFC800"/>
</linearGradient>
<linearGradient id="paint16_linear_1061_715" x1="74.5229" y1="69.4392" x2="84.5477" y2="69.4392" gradientUnits="userSpaceOnUse">
<stop offset="0.0024" stop-color="#FFF800"/>
<stop offset="0.2172" stop-color="#FFEB00"/>
<stop offset="0.7054" stop-color="#FFD100"/>
<stop offset="1" stop-color="#FFC800"/>
</linearGradient>
<linearGradient id="paint17_linear_1061_715" x1="58.6944" y1="117.638" x2="108.579" y2="117.638" gradientUnits="userSpaceOnUse">
<stop offset="0.0024" stop-color="#FFF800"/>
<stop offset="0.2172" stop-color="#FFEB00"/>
<stop offset="0.7054" stop-color="#FFD100"/>
<stop offset="1" stop-color="#FFC800"/>
</linearGradient>
<linearGradient id="paint18_linear_1061_715" x1="84.1725" y1="117.338" x2="107.888" y2="117.338" gradientUnits="userSpaceOnUse">
<stop stop-color="#FF9933"/>
<stop offset="1" stop-color="#FFC800"/>
</linearGradient>
<linearGradient id="paint19_linear_1061_715" x1="82.6555" y1="104.473" x2="82.6555" y2="67.2329" gradientUnits="userSpaceOnUse">
<stop offset="0.0916" stop-color="#FFDDBE"/>
<stop offset="0.443" stop-color="#FDDBBC"/>
<stop offset="0.612" stop-color="#F7D4B4"/>
<stop offset="0.742" stop-color="#ECC8A7"/>
<stop offset="0.8521" stop-color="#DDB795"/>
<stop offset="0.9487" stop-color="#CAA27D"/>
<stop offset="1" stop-color="#BD936D"/>
</linearGradient>
<linearGradient id="paint20_linear_1061_715" x1="63.0552" y1="83.0803" x2="103.527" y2="83.0803" gradientUnits="userSpaceOnUse">
<stop offset="0.132" stop-color="#534741"/>
<stop offset="0.8887" stop-color="#807240"/>
</linearGradient>
<linearGradient id="paint21_linear_1061_715" x1="103.91" y1="100.606" x2="136.36" y2="100.606" gradientUnits="userSpaceOnUse">
<stop offset="0.0024" stop-color="#FFF800"/>
<stop offset="0.2172" stop-color="#FFEB00"/>
<stop offset="0.7054" stop-color="#FFD100"/>
<stop offset="1" stop-color="#FFC800"/>
</linearGradient>
<linearGradient id="paint22_linear_1061_715" x1="120.92" y1="100.646" x2="135.67" y2="100.646" gradientUnits="userSpaceOnUse">
<stop stop-color="#FF9933"/>
<stop offset="1" stop-color="#FFC800"/>
</linearGradient>
<linearGradient id="paint23_linear_1061_715" x1="108.134" y1="80.4126" x2="132.493" y2="80.4126" gradientUnits="userSpaceOnUse">
<stop offset="0.0916" stop-color="#FFDDBE"/>
<stop offset="0.443" stop-color="#FDDBBC"/>
<stop offset="0.612" stop-color="#F7D4B4"/>
<stop offset="0.742" stop-color="#ECC8A7"/>
<stop offset="0.8521" stop-color="#DDB795"/>
<stop offset="0.9487" stop-color="#CAA27D"/>
<stop offset="1" stop-color="#BD936D"/>
</linearGradient>
<clipPath id="clip0_1061_715">
<rect width="148" height="148" fill="white"/>
</clipPath>
</defs>
</svg>
